<?xml version="1.0" encoding="utf-8" standalone="no"?>
<!DOCTYPE svg PUBLIC "-//W3C//DTD SVG 1.1//EN"
  "http://www.w3.org/Graphics/SVG/1.1/DTD/svg11.dtd">
<svg xmlns:xlink="http://www.w3.org/1999/xlink" width="2880pt" height="1080pt" viewBox="0 0 2880 1080" xmlns="http://www.w3.org/2000/svg" version="1.1">
 <metadata>
  <rdf:RDF xmlns:dc="http://purl.org/dc/elements/1.1/" xmlns:cc="http://creativecommons.org/ns#" xmlns:rdf="http://www.w3.org/1999/02/22-rdf-syntax-ns#">
   <cc:Work>
    <dc:type rdf:resource="http://purl.org/dc/dcmitype/StillImage"/>
    <dc:date>2024-05-18T14:17:10.473318</dc:date>
    <dc:format>image/svg+xml</dc:format>
    <dc:creator>
     <cc:Agent>
      <dc:title>Matplotlib v3.9.0, https://matplotlib.org/</dc:title>
     </cc:Agent>
    </dc:creator>
   </cc:Work>
  </rdf:RDF>
 </metadata>
 <defs>
  <style type="text/css">*{stroke-linejoin: round; stroke-linecap: butt}</style>
 </defs>
 <g id="figure_1">
  <g id="patch_1">
   <path d="M 0 1080 
L 2880 1080 
L 2880 0 
L 0 0 
z
" style="fill: #ffffff"/>
  </g>
  <g id="axes_1">
   <g id="patch_2">
    <path d="M 360 961.2 
L 1374.545455 961.2 
L 1374.545455 129.6 
L 360 129.6 
z
" style="fill: #e5e5e5"/>
   </g>
   <g id="matplotlib.axis_1">
    <g id="xtick_1">
     <g id="line2d_1">
      <path d="M 406.115702 961.2 
L 406.115702 129.6 
" clip-path="url(#p7575db0639)" style="fill: none; stroke: #ffffff; stroke-width: 0.8; stroke-linecap: square"/>
     </g>
     <g id="line2d_2">
      <defs>
       <path id="mc0de3c6f64" d="M 0 0 
L 0 3.5 
" style="stroke: #555555; stroke-width: 0.8"/>
      </defs>
      <g>
       <use xlink:href="#mc0de3c6f64" x="406.115702" y="961.2" style="fill: #555555; stroke: #555555; stroke-width: 0.8"/>
      </g>
     </g>
     <g id="text_1">
      <!-- 0.0 -->
      <g style="fill: #555555" transform="translate(375.899765 997.074063) scale(0.38 -0.38)">
       <defs>
        <path id="DejaVuSans-30" d="M 2034 4250 
Q 1547 4250 1301 3770 
Q 1056 3291 1056 2328 
Q 1056 1369 1301 889 
Q 1547 409 2034 409 
Q 2525 409 2770 889 
Q 3016 1369 3016 2328 
Q 3016 3291 2770 3770 
Q 2525 4250 2034 4250 
z
M 2034 4750 
Q 2819 4750 3233 4129 
Q 3647 3509 3647 2328 
Q 3647 1150 3233 529 
Q 2819 -91 2034 -91 
Q 1250 -91 836 529 
Q 422 1150 422 2328 
Q 422 3509 836 4129 
Q 1250 4750 2034 4750 
z
" transform="scale(0.015625)"/>
        <path id="DejaVuSans-2e" d="M 684 794 
L 1344 794 
L 1344 0 
L 684 0 
L 684 794 
z
" transform="scale(0.015625)"/>
       </defs>
       <use xlink:href="#DejaVuSans-30"/>
       <use xlink:href="#DejaVuSans-2e" x="63.623047"/>
       <use xlink:href="#DejaVuSans-30" x="95.410156"/>
      </g>
     </g>
    </g>
    <g id="xtick_2">
     <g id="line2d_3">
      <path d="M 590.578512 961.2 
L 590.578512 129.6 
" clip-path="url(#p7575db0639)" style="fill: none; stroke: #ffffff; stroke-width: 0.8; stroke-linecap: square"/>
     </g>
     <g id="line2d_4">
      <g>
       <use xlink:href="#mc0de3c6f64" x="590.578512" y="961.2" style="fill: #555555; stroke: #555555; stroke-width: 0.8"/>
      </g>
     </g>
     <g id="text_2">
      <!-- 0.2 -->
      <g style="fill: #555555" transform="translate(560.362575 997.074063) scale(0.38 -0.38)">
       <defs>
        <path id="DejaVuSans-32" d="M 1228 531 
L 3431 531 
L 3431 0 
L 469 0 
L 469 531 
Q 828 903 1448 1529 
Q 2069 2156 2228 2338 
Q 2531 2678 2651 2914 
Q 2772 3150 2772 3378 
Q 2772 3750 2511 3984 
Q 2250 4219 1831 4219 
Q 1534 4219 1204 4116 
Q 875 4013 500 3803 
L 500 4441 
Q 881 4594 1212 4672 
Q 1544 4750 1819 4750 
Q 2544 4750 2975 4387 
Q 3406 4025 3406 3419 
Q 3406 3131 3298 2873 
Q 3191 2616 2906 2266 
Q 2828 2175 2409 1742 
Q 1991 1309 1228 531 
z
" transform="scale(0.015625)"/>
       </defs>
       <use xlink:href="#DejaVuSans-30"/>
       <use xlink:href="#DejaVuSans-2e" x="63.623047"/>
       <use xlink:href="#DejaVuSans-32" x="95.410156"/>
      </g>
     </g>
    </g>
    <g id="xtick_3">
     <g id="line2d_5">
      <path d="M 775.041322 961.2 
L 775.041322 129.6 
" clip-path="url(#p7575db0639)" style="fill: none; stroke: #ffffff; stroke-width: 0.8; stroke-linecap: square"/>
     </g>
     <g id="line2d_6">
      <g>
       <use xlink:href="#mc0de3c6f64" x="775.041322" y="961.2" style="fill: #555555; stroke: #555555; stroke-width: 0.8"/>
      </g>
     </g>
     <g id="text_3">
      <!-- 0.4 -->
      <g style="fill: #555555" transform="translate(744.825385 997.074063) scale(0.38 -0.38)">
       <defs>
        <path id="DejaVuSans-34" d="M 2419 4116 
L 825 1625 
L 2419 1625 
L 2419 4116 
z
M 2253 4666 
L 3047 4666 
L 3047 1625 
L 3713 1625 
L 3713 1100 
L 3047 1100 
L 3047 0 
L 2419 0 
L 2419 1100 
L 313 1100 
L 313 1709 
L 2253 4666 
z
" transform="scale(0.015625)"/>
       </defs>
       <use xlink:href="#DejaVuSans-30"/>
       <use xlink:href="#DejaVuSans-2e" x="63.623047"/>
       <use xlink:href="#DejaVuSans-34" x="95.410156"/>
      </g>
     </g>
    </g>
    <g id="xtick_4">
     <g id="line2d_7">
      <path d="M 959.504132 961.2 
L 959.504132 129.6 
" clip-path="url(#p7575db0639)" style="fill: none; stroke: #ffffff; stroke-width: 0.8; stroke-linecap: square"/>
     </g>
     <g id="line2d_8">
      <g>
       <use xlink:href="#mc0de3c6f64" x="959.504132" y="961.2" style="fill: #555555; stroke: #555555; stroke-width: 0.8"/>
      </g>
     </g>
     <g id="text_4">
      <!-- 0.6 -->
      <g style="fill: #555555" transform="translate(929.288195 997.074063) scale(0.38 -0.38)">
       <defs>
        <path id="DejaVuSans-36" d="M 2113 2584 
Q 1688 2584 1439 2293 
Q 1191 2003 1191 1497 
Q 1191 994 1439 701 
Q 1688 409 2113 409 
Q 2538 409 2786 701 
Q 3034 994 3034 1497 
Q 3034 2003 2786 2293 
Q 2538 2584 2113 2584 
z
M 3366 4563 
L 3366 3988 
Q 3128 4100 2886 4159 
Q 2644 4219 2406 4219 
Q 1781 4219 1451 3797 
Q 1122 3375 1075 2522 
Q 1259 2794 1537 2939 
Q 1816 3084 2150 3084 
Q 2853 3084 3261 2657 
Q 3669 2231 3669 1497 
Q 3669 778 3244 343 
Q 2819 -91 2113 -91 
Q 1303 -91 875 529 
Q 447 1150 447 2328 
Q 447 3434 972 4092 
Q 1497 4750 2381 4750 
Q 2619 4750 2861 4703 
Q 3103 4656 3366 4563 
z
" transform="scale(0.015625)"/>
       </defs>
       <use xlink:href="#DejaVuSans-30"/>
       <use xlink:href="#DejaVuSans-2e" x="63.623047"/>
       <use xlink:href="#DejaVuSans-36" x="95.410156"/>
      </g>
     </g>
    </g>
    <g id="xtick_5">
     <g id="line2d_9">
      <path d="M 1143.966942 961.2 
L 1143.966942 129.6 
" clip-path="url(#p7575db0639)" style="fill: none; stroke: #ffffff; stroke-width: 0.8; stroke-linecap: square"/>
     </g>
     <g id="line2d_10">
      <g>
       <use xlink:href="#mc0de3c6f64" x="1143.966942" y="961.2" style="fill: #555555; stroke: #555555; stroke-width: 0.8"/>
      </g>
     </g>
     <g id="text_5">
      <!-- 0.8 -->
      <g style="fill: #555555" transform="translate(1113.751005 997.074063) scale(0.38 -0.38)">
       <defs>
        <path id="DejaVuSans-38" d="M 2034 2216 
Q 1584 2216 1326 1975 
Q 1069 1734 1069 1313 
Q 1069 891 1326 650 
Q 1584 409 2034 409 
Q 2484 409 2743 651 
Q 3003 894 3003 1313 
Q 3003 1734 2745 1975 
Q 2488 2216 2034 2216 
z
M 1403 2484 
Q 997 2584 770 2862 
Q 544 3141 544 3541 
Q 544 4100 942 4425 
Q 1341 4750 2034 4750 
Q 2731 4750 3128 4425 
Q 3525 4100 3525 3541 
Q 3525 3141 3298 2862 
Q 3072 2584 2669 2484 
Q 3125 2378 3379 2068 
Q 3634 1759 3634 1313 
Q 3634 634 3220 271 
Q 2806 -91 2034 -91 
Q 1263 -91 848 271 
Q 434 634 434 1313 
Q 434 1759 690 2068 
Q 947 2378 1403 2484 
z
M 1172 3481 
Q 1172 3119 1398 2916 
Q 1625 2713 2034 2713 
Q 2441 2713 2670 2916 
Q 2900 3119 2900 3481 
Q 2900 3844 2670 4047 
Q 2441 4250 2034 4250 
Q 1625 4250 1398 4047 
Q 1172 3844 1172 3481 
z
" transform="scale(0.015625)"/>
       </defs>
       <use xlink:href="#DejaVuSans-30"/>
       <use xlink:href="#DejaVuSans-2e" x="63.623047"/>
       <use xlink:href="#DejaVuSans-38" x="95.410156"/>
      </g>
     </g>
    </g>
    <g id="xtick_6">
     <g id="line2d_11">
      <path d="M 1328.429752 961.2 
L 1328.429752 129.6 
" clip-path="url(#p7575db0639)" style="fill: none; stroke: #ffffff; stroke-width: 0.8; stroke-linecap: square"/>
     </g>
     <g id="line2d_12">
      <g>
       <use xlink:href="#mc0de3c6f64" x="1328.429752" y="961.2" style="fill: #555555; stroke: #555555; stroke-width: 0.8"/>
      </g>
     </g>
     <g id="text_6">
      <!-- 1.0 -->
      <g style="fill: #555555" transform="translate(1298.213815 997.074063) scale(0.38 -0.38)">
       <defs>
        <path id="DejaVuSans-31" d="M 794 531 
L 1825 531 
L 1825 4091 
L 703 3866 
L 703 4441 
L 1819 4666 
L 2450 4666 
L 2450 531 
L 3481 531 
L 3481 0 
L 794 0 
L 794 531 
z
" transform="scale(0.015625)"/>
       </defs>
       <use xlink:href="#DejaVuSans-31"/>
       <use xlink:href="#DejaVuSans-2e" x="63.623047"/>
       <use xlink:href="#DejaVuSans-30" x="95.410156"/>
      </g>
     </g>
    </g>
    <g id="text_7">
     <!-- Step # -->
     <g style="fill: #555555" transform="translate(789.004602 1043.62575) scale(0.456 -0.456)">
      <defs>
       <path id="DejaVuSans-53" d="M 3425 4513 
L 3425 3897 
Q 3066 4069 2747 4153 
Q 2428 4238 2131 4238 
Q 1616 4238 1336 4038 
Q 1056 3838 1056 3469 
Q 1056 3159 1242 3001 
Q 1428 2844 1947 2747 
L 2328 2669 
Q 3034 2534 3370 2195 
Q 3706 1856 3706 1288 
Q 3706 609 3251 259 
Q 2797 -91 1919 -91 
Q 1588 -91 1214 -16 
Q 841 59 441 206 
L 441 856 
Q 825 641 1194 531 
Q 1563 422 1919 422 
Q 2459 422 2753 634 
Q 3047 847 3047 1241 
Q 3047 1584 2836 1778 
Q 2625 1972 2144 2069 
L 1759 2144 
Q 1053 2284 737 2584 
Q 422 2884 422 3419 
Q 422 4038 858 4394 
Q 1294 4750 2059 4750 
Q 2388 4750 2728 4690 
Q 3069 4631 3425 4513 
z
" transform="scale(0.015625)"/>
       <path id="DejaVuSans-74" d="M 1172 4494 
L 1172 3500 
L 2356 3500 
L 2356 3053 
L 1172 3053 
L 1172 1153 
Q 1172 725 1289 603 
Q 1406 481 1766 481 
L 2356 481 
L 2356 0 
L 1766 0 
Q 1100 0 847 248 
Q 594 497 594 1153 
L 594 3053 
L 172 3053 
L 172 3500 
L 594 3500 
L 594 4494 
L 1172 4494 
z
" transform="scale(0.015625)"/>
       <path id="DejaVuSans-65" d="M 3597 1894 
L 3597 1613 
L 953 1613 
Q 991 1019 1311 708 
Q 1631 397 2203 397 
Q 2534 397 2845 478 
Q 3156 559 3463 722 
L 3463 178 
Q 3153 47 2828 -22 
Q 2503 -91 2169 -91 
Q 1331 -91 842 396 
Q 353 884 353 1716 
Q 353 2575 817 3079 
Q 1281 3584 2069 3584 
Q 2775 3584 3186 3129 
Q 3597 2675 3597 1894 
z
M 3022 2063 
Q 3016 2534 2758 2815 
Q 2500 3097 2075 3097 
Q 1594 3097 1305 2825 
Q 1016 2553 972 2059 
L 3022 2063 
z
" transform="scale(0.015625)"/>
       <path id="DejaVuSans-70" d="M 1159 525 
L 1159 -1331 
L 581 -1331 
L 581 3500 
L 1159 3500 
L 1159 2969 
Q 1341 3281 1617 3432 
Q 1894 3584 2278 3584 
Q 2916 3584 3314 3078 
Q 3713 2572 3713 1747 
Q 3713 922 3314 415 
Q 2916 -91 2278 -91 
Q 1894 -91 1617 61 
Q 1341 213 1159 525 
z
M 3116 1747 
Q 3116 2381 2855 2742 
Q 2594 3103 2138 3103 
Q 1681 3103 1420 2742 
Q 1159 2381 1159 1747 
Q 1159 1113 1420 752 
Q 1681 391 2138 391 
Q 2594 391 2855 752 
Q 3116 1113 3116 1747 
z
" transform="scale(0.015625)"/>
       <path id="DejaVuSans-20" transform="scale(0.015625)"/>
       <path id="DejaVuSans-23" d="M 3272 2816 
L 2363 2816 
L 2100 1772 
L 3016 1772 
L 3272 2816 
z
M 2803 4594 
L 2478 3297 
L 3391 3297 
L 3719 4594 
L 4219 4594 
L 3897 3297 
L 4872 3297 
L 4872 2816 
L 3775 2816 
L 3519 1772 
L 4513 1772 
L 4513 1294 
L 3397 1294 
L 3072 0 
L 2572 0 
L 2894 1294 
L 1978 1294 
L 1656 0 
L 1153 0 
L 1478 1294 
L 494 1294 
L 494 1772 
L 1594 1772 
L 1856 2816 
L 850 2816 
L 850 3297 
L 1978 3297 
L 2297 4594 
L 2803 4594 
z
" transform="scale(0.015625)"/>
      </defs>
      <use xlink:href="#DejaVuSans-53"/>
      <use xlink:href="#DejaVuSans-74" x="63.476562"/>
      <use xlink:href="#DejaVuSans-65" x="102.685547"/>
      <use xlink:href="#DejaVuSans-70" x="164.208984"/>
      <use xlink:href="#DejaVuSans-20" x="227.685547"/>
      <use xlink:href="#DejaVuSans-23" x="259.472656"/>
     </g>
    </g>
    <g id="text_8">
     <!-- 1e6 -->
     <g style="fill: #555555" transform="translate(1302.80858 1036.850938) scale(0.38 -0.38)">
      <use xlink:href="#DejaVuSans-31"/>
      <use xlink:href="#DejaVuSans-65" x="63.623047"/>
      <use xlink:href="#DejaVuSans-36" x="125.146484"/>
     </g>
    </g>
   </g>
   <g id="matplotlib.axis_2">
    <g id="ytick_1">
     <g id="line2d_13">
      <path d="M 360 815.537254 
L 1374.545455 815.537254 
" clip-path="url(#p7575db0639)" style="fill: none; stroke: #ffffff; stroke-width: 0.8; stroke-linecap: square"/>
     </g>
     <g id="line2d_14">
      <defs>
       <path id="mb36e92d527" d="M 0 0 
L -3.5 0 
" style="stroke: #555555; stroke-width: 0.8"/>
      </defs>
      <g>
       <use xlink:href="#mb36e92d527" x="360" y="815.537254" style="fill: #555555; stroke: #555555; stroke-width: 0.8"/>
      </g>
     </g>
     <g id="text_9">
      <!-- −100 -->
      <g style="fill: #555555" transform="translate(248.624687 829.974285) scale(0.38 -0.38)">
       <defs>
        <path id="DejaVuSans-2212" d="M 678 2272 
L 4684 2272 
L 4684 1741 
L 678 1741 
L 678 2272 
z
" transform="scale(0.015625)"/>
       </defs>
       <use xlink:href="#DejaVuSans-2212"/>
       <use xlink:href="#DejaVuSans-31" x="83.789062"/>
       <use xlink:href="#DejaVuSans-30" x="147.412109"/>
       <use xlink:href="#DejaVuSans-30" x="211.035156"/>
      </g>
     </g>
    </g>
    <g id="ytick_2">
     <g id="line2d_15">
      <path d="M 360 659.014398 
L 1374.545455 659.014398 
" clip-path="url(#p7575db0639)" style="fill: none; stroke: #ffffff; stroke-width: 0.8; stroke-linecap: square"/>
     </g>
     <g id="line2d_16">
      <g>
       <use xlink:href="#mb36e92d527" x="360" y="659.014398" style="fill: #555555; stroke: #555555; stroke-width: 0.8"/>
      </g>
     </g>
     <g id="text_10">
      <!-- −50 -->
      <g style="fill: #555555" transform="translate(272.802188 673.451429) scale(0.38 -0.38)">
       <defs>
        <path id="DejaVuSans-35" d="M 691 4666 
L 3169 4666 
L 3169 4134 
L 1269 4134 
L 1269 2991 
Q 1406 3038 1543 3061 
Q 1681 3084 1819 3084 
Q 2600 3084 3056 2656 
Q 3513 2228 3513 1497 
Q 3513 744 3044 326 
Q 2575 -91 1722 -91 
Q 1428 -91 1123 -41 
Q 819 9 494 109 
L 494 744 
Q 775 591 1075 516 
Q 1375 441 1709 441 
Q 2250 441 2565 725 
Q 2881 1009 2881 1497 
Q 2881 1984 2565 2268 
Q 2250 2553 1709 2553 
Q 1456 2553 1204 2497 
Q 953 2441 691 2322 
L 691 4666 
z
" transform="scale(0.015625)"/>
       </defs>
       <use xlink:href="#DejaVuSans-2212"/>
       <use xlink:href="#DejaVuSans-35" x="83.789062"/>
       <use xlink:href="#DejaVuSans-30" x="147.412109"/>
      </g>
     </g>
    </g>
    <g id="ytick_3">
     <g id="line2d_17">
      <path d="M 360 502.491542 
L 1374.545455 502.491542 
" clip-path="url(#p7575db0639)" style="fill: none; stroke: #ffffff; stroke-width: 0.8; stroke-linecap: square"/>
     </g>
     <g id="line2d_18">
      <g>
       <use xlink:href="#mb36e92d527" x="360" y="502.491542" style="fill: #555555; stroke: #555555; stroke-width: 0.8"/>
      </g>
     </g>
     <g id="text_11">
      <!-- 0 -->
      <g style="fill: #555555" transform="translate(328.8225 516.928573) scale(0.38 -0.38)">
       <use xlink:href="#DejaVuSans-30"/>
      </g>
     </g>
    </g>
    <g id="ytick_4">
     <g id="line2d_19">
      <path d="M 360 345.968685 
L 1374.545455 345.968685 
" clip-path="url(#p7575db0639)" style="fill: none; stroke: #ffffff; stroke-width: 0.8; stroke-linecap: square"/>
     </g>
     <g id="line2d_20">
      <g>
       <use xlink:href="#mb36e92d527" x="360" y="345.968685" style="fill: #555555; stroke: #555555; stroke-width: 0.8"/>
      </g>
     </g>
     <g id="text_12">
      <!-- 50 -->
      <g style="fill: #555555" transform="translate(304.645 360.405717) scale(0.38 -0.38)">
       <use xlink:href="#DejaVuSans-35"/>
       <use xlink:href="#DejaVuSans-30" x="63.623047"/>
      </g>
     </g>
    </g>
    <g id="ytick_5">
     <g id="line2d_21">
      <path d="M 360 189.445829 
L 1374.545455 189.445829 
" clip-path="url(#p7575db0639)" style="fill: none; stroke: #ffffff; stroke-width: 0.8; stroke-linecap: square"/>
     </g>
     <g id="line2d_22">
      <g>
       <use xlink:href="#mb36e92d527" x="360" y="189.445829" style="fill: #555555; stroke: #555555; stroke-width: 0.8"/>
      </g>
     </g>
     <g id="text_13">
      <!-- 100 -->
      <g style="fill: #555555" transform="translate(280.4675 203.88286) scale(0.38 -0.38)">
       <use xlink:href="#DejaVuSans-31"/>
       <use xlink:href="#DejaVuSans-30" x="63.623047"/>
       <use xlink:href="#DejaVuSans-30" x="127.246094"/>
      </g>
     </g>
    </g>
    <g id="text_14">
     <!-- Average Team Reward -->
     <g style="fill: #555555" transform="translate(235.141312 798.69375) rotate(-90) scale(0.456 -0.456)">
      <defs>
       <path id="DejaVuSans-41" d="M 2188 4044 
L 1331 1722 
L 3047 1722 
L 2188 4044 
z
M 1831 4666 
L 2547 4666 
L 4325 0 
L 3669 0 
L 3244 1197 
L 1141 1197 
L 716 0 
L 50 0 
L 1831 4666 
z
" transform="scale(0.015625)"/>
       <path id="DejaVuSans-76" d="M 191 3500 
L 800 3500 
L 1894 563 
L 2988 3500 
L 3597 3500 
L 2284 0 
L 1503 0 
L 191 3500 
z
" transform="scale(0.015625)"/>
       <path id="DejaVuSans-72" d="M 2631 2963 
Q 2534 3019 2420 3045 
Q 2306 3072 2169 3072 
Q 1681 3072 1420 2755 
Q 1159 2438 1159 1844 
L 1159 0 
L 581 0 
L 581 3500 
L 1159 3500 
L 1159 2956 
Q 1341 3275 1631 3429 
Q 1922 3584 2338 3584 
Q 2397 3584 2469 3576 
Q 2541 3569 2628 3553 
L 2631 2963 
z
" transform="scale(0.015625)"/>
       <path id="DejaVuSans-61" d="M 2194 1759 
Q 1497 1759 1228 1600 
Q 959 1441 959 1056 
Q 959 750 1161 570 
Q 1363 391 1709 391 
Q 2188 391 2477 730 
Q 2766 1069 2766 1631 
L 2766 1759 
L 2194 1759 
z
M 3341 1997 
L 3341 0 
L 2766 0 
L 2766 531 
Q 2569 213 2275 61 
Q 1981 -91 1556 -91 
Q 1019 -91 701 211 
Q 384 513 384 1019 
Q 384 1609 779 1909 
Q 1175 2209 1959 2209 
L 2766 2209 
L 2766 2266 
Q 2766 2663 2505 2880 
Q 2244 3097 1772 3097 
Q 1472 3097 1187 3025 
Q 903 2953 641 2809 
L 641 3341 
Q 956 3463 1253 3523 
Q 1550 3584 1831 3584 
Q 2591 3584 2966 3190 
Q 3341 2797 3341 1997 
z
" transform="scale(0.015625)"/>
       <path id="DejaVuSans-67" d="M 2906 1791 
Q 2906 2416 2648 2759 
Q 2391 3103 1925 3103 
Q 1463 3103 1205 2759 
Q 947 2416 947 1791 
Q 947 1169 1205 825 
Q 1463 481 1925 481 
Q 2391 481 2648 825 
Q 2906 1169 2906 1791 
z
M 3481 434 
Q 3481 -459 3084 -895 
Q 2688 -1331 1869 -1331 
Q 1566 -1331 1297 -1286 
Q 1028 -1241 775 -1147 
L 775 -588 
Q 1028 -725 1275 -790 
Q 1522 -856 1778 -856 
Q 2344 -856 2625 -561 
Q 2906 -266 2906 331 
L 2906 616 
Q 2728 306 2450 153 
Q 2172 0 1784 0 
Q 1141 0 747 490 
Q 353 981 353 1791 
Q 353 2603 747 3093 
Q 1141 3584 1784 3584 
Q 2172 3584 2450 3431 
Q 2728 3278 2906 2969 
L 2906 3500 
L 3481 3500 
L 3481 434 
z
" transform="scale(0.015625)"/>
       <path id="DejaVuSans-54" d="M -19 4666 
L 3928 4666 
L 3928 4134 
L 2272 4134 
L 2272 0 
L 1638 0 
L 1638 4134 
L -19 4134 
L -19 4666 
z
" transform="scale(0.015625)"/>
       <path id="DejaVuSans-6d" d="M 3328 2828 
Q 3544 3216 3844 3400 
Q 4144 3584 4550 3584 
Q 5097 3584 5394 3201 
Q 5691 2819 5691 2113 
L 5691 0 
L 5113 0 
L 5113 2094 
Q 5113 2597 4934 2840 
Q 4756 3084 4391 3084 
Q 3944 3084 3684 2787 
Q 3425 2491 3425 1978 
L 3425 0 
L 2847 0 
L 2847 2094 
Q 2847 2600 2669 2842 
Q 2491 3084 2119 3084 
Q 1678 3084 1418 2786 
Q 1159 2488 1159 1978 
L 1159 0 
L 581 0 
L 581 3500 
L 1159 3500 
L 1159 2956 
Q 1356 3278 1631 3431 
Q 1906 3584 2284 3584 
Q 2666 3584 2933 3390 
Q 3200 3197 3328 2828 
z
" transform="scale(0.015625)"/>
       <path id="DejaVuSans-52" d="M 2841 2188 
Q 3044 2119 3236 1894 
Q 3428 1669 3622 1275 
L 4263 0 
L 3584 0 
L 2988 1197 
Q 2756 1666 2539 1819 
Q 2322 1972 1947 1972 
L 1259 1972 
L 1259 0 
L 628 0 
L 628 4666 
L 2053 4666 
Q 2853 4666 3247 4331 
Q 3641 3997 3641 3322 
Q 3641 2881 3436 2590 
Q 3231 2300 2841 2188 
z
M 1259 4147 
L 1259 2491 
L 2053 2491 
Q 2509 2491 2742 2702 
Q 2975 2913 2975 3322 
Q 2975 3731 2742 3939 
Q 2509 4147 2053 4147 
L 1259 4147 
z
" transform="scale(0.015625)"/>
       <path id="DejaVuSans-77" d="M 269 3500 
L 844 3500 
L 1563 769 
L 2278 3500 
L 2956 3500 
L 3675 769 
L 4391 3500 
L 4966 3500 
L 4050 0 
L 3372 0 
L 2619 2869 
L 1863 0 
L 1184 0 
L 269 3500 
z
" transform="scale(0.015625)"/>
       <path id="DejaVuSans-64" d="M 2906 2969 
L 2906 4863 
L 3481 4863 
L 3481 0 
L 2906 0 
L 2906 525 
Q 2725 213 2448 61 
Q 2172 -91 1784 -91 
Q 1150 -91 751 415 
Q 353 922 353 1747 
Q 353 2572 751 3078 
Q 1150 3584 1784 3584 
Q 2172 3584 2448 3432 
Q 2725 3281 2906 2969 
z
M 947 1747 
Q 947 1113 1208 752 
Q 1469 391 1925 391 
Q 2381 391 2643 752 
Q 2906 1113 2906 1747 
Q 2906 2381 2643 2742 
Q 2381 3103 1925 3103 
Q 1469 3103 1208 2742 
Q 947 2381 947 1747 
z
" transform="scale(0.015625)"/>
      </defs>
      <use xlink:href="#DejaVuSans-41"/>
      <use xlink:href="#DejaVuSans-76" x="62.533203"/>
      <use xlink:href="#DejaVuSans-65" x="121.712891"/>
      <use xlink:href="#DejaVuSans-72" x="183.236328"/>
      <use xlink:href="#DejaVuSans-61" x="224.349609"/>
      <use xlink:href="#DejaVuSans-67" x="285.628906"/>
      <use xlink:href="#DejaVuSans-65" x="349.105469"/>
      <use xlink:href="#DejaVuSans-20" x="410.628906"/>
      <use xlink:href="#DejaVuSans-54" x="442.416016"/>
      <use xlink:href="#DejaVuSans-65" x="486.5"/>
      <use xlink:href="#DejaVuSans-61" x="548.023438"/>
      <use xlink:href="#DejaVuSans-6d" x="609.302734"/>
      <use xlink:href="#DejaVuSans-20" x="706.714844"/>
      <use xlink:href="#DejaVuSans-52" x="738.501953"/>
      <use xlink:href="#DejaVuSans-65" x="803.484375"/>
      <use xlink:href="#DejaVuSans-77" x="865.007812"/>
      <use xlink:href="#DejaVuSans-61" x="946.794922"/>
      <use xlink:href="#DejaVuSans-72" x="1008.074219"/>
      <use xlink:href="#DejaVuSans-64" x="1047.4375"/>
     </g>
    </g>
   </g>
   <g id="PolyCollection_1">
    <defs>
     <path id="me67710b6a2" d="M 406.115702 -333.556899 
L 406.115702 -213.087266 
L 443.008264 -212.34502 
L 479.900826 -290.956933 
L 516.793388 -249.151409 
L 553.68595 -298.202249 
L 590.578512 -277.974971 
L 627.471074 -330.744591 
L 664.363636 -241.880004 
L 701.256198 -343.914728 
L 738.14876 -299.015032 
L 775.041322 -491.307285 
L 811.933884 -452.262742 
L 848.826446 -568.519837 
L 885.719008 -513.143302 
L 922.61157 -586.461169 
L 959.504132 -489.189793 
L 996.396694 -643.734956 
L 1033.289256 -596.479583 
L 1070.181818 -629.045544 
L 1107.07438 -608.220749 
L 1143.966942 -669.082272 
L 1180.859504 -756.085476 
L 1217.752066 -700.155664 
L 1254.644628 -639.204994 
L 1291.53719 -701.206966 
L 1328.429752 -702.222096 
L 1328.429752 -825.632985 
L 1328.429752 -825.632985 
L 1291.53719 -812.409647 
L 1254.644628 -799.955877 
L 1217.752066 -840.620539 
L 1180.859504 -858.920221 
L 1143.966942 -857.999536 
L 1107.07438 -809.073456 
L 1070.181818 -838.287253 
L 1033.289256 -827.812805 
L 996.396694 -823.246809 
L 959.504132 -693.014999 
L 922.61157 -759.241426 
L 885.719008 -732.420059 
L 848.826446 -775.889989 
L 811.933884 -690.032428 
L 775.041322 -743.220311 
L 738.14876 -541.827381 
L 701.256198 -595.000967 
L 664.363636 -570.346308 
L 627.471074 -463.867706 
L 590.578512 -415.832759 
L 553.68595 -354.457333 
L 516.793388 -343.367571 
L 479.900826 -358.370935 
L 443.008264 -265.898649 
L 406.115702 -333.556899 
z
" style="stroke: #808080; stroke-opacity: 0.2; stroke-width: 0.5"/>
    </defs>
    <g clip-path="url(#p7575db0639)">
     <use xlink:href="#me67710b6a2" x="0" y="1080" style="fill: #808080; fill-opacity: 0.2; stroke: #808080; stroke-opacity: 0.2; stroke-width: 0.5"/>
    </g>
   </g>
   <g id="PolyCollection_2">
    <defs>
     <path id="m5f456e1d6d" d="M 406.115702 -304.247722 
L 406.115702 -220.315546 
L 443.008264 -288.446688 
L 479.900826 -347.11396 
L 516.793388 -232.975048 
L 553.68595 -300.042367 
L 590.578512 -311.064499 
L 627.471074 -368.540476 
L 664.363636 -465.829695 
L 701.256198 -410.132531 
L 738.14876 -405.375252 
L 775.041322 -465.326024 
L 811.933884 -404.207234 
L 848.826446 -483.245394 
L 885.719008 -505.62521 
L 922.61157 -561.155228 
L 959.504132 -497.981076 
L 996.396694 -414.197867 
L 1033.289256 -440.824827 
L 1070.181818 -379.447184 
L 1107.07438 -429.930607 
L 1143.966942 -392.908645 
L 1180.859504 -361.932127 
L 1217.752066 -439.82527 
L 1254.644628 -473.910418 
L 1291.53719 -470.523752 
L 1328.429752 -416.829615 
L 1328.429752 -619.842935 
L 1328.429752 -619.842935 
L 1291.53719 -597.084935 
L 1254.644628 -700.147899 
L 1217.752066 -582.533205 
L 1180.859504 -611.917651 
L 1143.966942 -590.248179 
L 1107.07438 -690.533813 
L 1070.181818 -588.91724 
L 1033.289256 -674.251794 
L 996.396694 -566.637231 
L 959.504132 -708.512994 
L 922.61157 -696.523391 
L 885.719008 -708.321847 
L 848.826446 -665.534293 
L 811.933884 -655.769886 
L 775.041322 -653.404167 
L 738.14876 -661.923042 
L 701.256198 -647.455111 
L 664.363636 -676.177357 
L 627.471074 -589.810492 
L 590.578512 -583.662579 
L 553.68595 -478.60495 
L 516.793388 -406.718625 
L 479.900826 -485.349979 
L 443.008264 -437.535746 
L 406.115702 -304.247722 
z
" style="stroke: #1f77b4; stroke-opacity: 0.2; stroke-width: 0.5"/>
    </defs>
    <g clip-path="url(#p7575db0639)">
     <use xlink:href="#m5f456e1d6d" x="0" y="1080" style="fill: #1f77b4; fill-opacity: 0.2; stroke: #1f77b4; stroke-opacity: 0.2; stroke-width: 0.5"/>
    </g>
   </g>
   <g id="PolyCollection_3">
    <defs>
     <path id="m9b012ae0a2" d="M 406.115702 -432.177125 
L 406.115702 -269.610334 
L 443.008264 -156.6 
L 479.900826 -278.500286 
L 516.793388 -260.885037 
L 553.68595 -290.560566 
L 590.578512 -336.855545 
L 627.471074 -289.493508 
L 664.363636 -284.365441 
L 701.256198 -441.6171 
L 738.14876 -267.324349 
L 775.041322 -360.507001 
L 811.933884 -386.703294 
L 848.826446 -336.430856 
L 885.719008 -416.222926 
L 922.61157 -335.926076 
L 959.504132 -443.313868 
L 996.396694 -394.979936 
L 1033.289256 -511.984758 
L 1070.181818 -496.87352 
L 1107.07438 -583.517929 
L 1143.966942 -624.268946 
L 1180.859504 -613.233334 
L 1217.752066 -702.575236 
L 1254.644628 -717.075695 
L 1291.53719 -814.234786 
L 1328.429752 -830.547394 
L 1328.429752 -866.418932 
L 1328.429752 -866.418932 
L 1291.53719 -875.994307 
L 1254.644628 -808.086733 
L 1217.752066 -832.158214 
L 1180.859504 -759.80084 
L 1143.966942 -814.074753 
L 1107.07438 -748.51174 
L 1070.181818 -690.728856 
L 1033.289256 -730.330201 
L 996.396694 -580.690738 
L 959.504132 -624.478173 
L 922.61157 -496.034226 
L 885.719008 -592.162112 
L 848.826446 -455.90757 
L 811.933884 -558.687081 
L 775.041322 -551.566799 
L 738.14876 -492.867006 
L 701.256198 -597.811965 
L 664.363636 -435.795197 
L 627.471074 -446.756026 
L 590.578512 -464.326458 
L 553.68595 -390.607662 
L 516.793388 -417.627606 
L 479.900826 -353.093044 
L 443.008264 -277.776995 
L 406.115702 -432.177125 
z
" style="stroke: #ff7f0e; stroke-opacity: 0.2; stroke-width: 0.5"/>
    </defs>
    <g clip-path="url(#p7575db0639)">
     <use xlink:href="#m9b012ae0a2" x="0" y="1080" style="fill: #ff7f0e; fill-opacity: 0.2; stroke: #ff7f0e; stroke-opacity: 0.2; stroke-width: 0.5"/>
    </g>
   </g>
   <g id="PolyCollection_4">
    <defs>
     <path id="mec84d779c4" d="M 406.115702 -259.680378 
L 406.115702 -246.091688 
L 443.008264 -281.456384 
L 479.900826 -259.73253 
L 516.793388 -280.978444 
L 553.68595 -311.367938 
L 590.578512 -411.857941 
L 627.471074 -404.242038 
L 664.363636 -429.503013 
L 701.256198 -455.388896 
L 738.14876 -430.350912 
L 775.041322 -442.869892 
L 811.933884 -470.785599 
L 848.826446 -469.766034 
L 885.719008 -480.418792 
L 922.61157 -426.967469 
L 959.504132 -391.491141 
L 996.396694 -414.692895 
L 1033.289256 -426.068002 
L 1070.181818 -362.147136 
L 1107.07438 -388.625564 
L 1143.966942 -427.212226 
L 1180.859504 -434.64392 
L 1217.752066 -447.841399 
L 1254.644628 -471.000696 
L 1291.53719 -477.772947 
L 1328.429752 -478.336982 
L 1328.429752 -646.121729 
L 1328.429752 -646.121729 
L 1291.53719 -622.857279 
L 1254.644628 -603.22493 
L 1217.752066 -568.451442 
L 1180.859504 -552.670944 
L 1143.966942 -537.035376 
L 1107.07438 -530.691603 
L 1070.181818 -483.261166 
L 1033.289256 -523.433759 
L 996.396694 -482.48604 
L 959.504132 -510.43289 
L 922.61157 -535.90696 
L 885.719008 -557.456459 
L 848.826446 -548.251982 
L 811.933884 -557.960027 
L 775.041322 -553.218454 
L 738.14876 -555.40519 
L 701.256198 -565.164345 
L 664.363636 -530.387283 
L 627.471074 -496.549189 
L 590.578512 -486.686805 
L 553.68595 -410.845169 
L 516.793388 -367.191291 
L 479.900826 -306.052134 
L 443.008264 -296.020515 
L 406.115702 -259.680378 
z
" style="stroke: #e377c2; stroke-opacity: 0.2; stroke-width: 0.5"/>
    </defs>
    <g clip-path="url(#p7575db0639)">
     <use xlink:href="#mec84d779c4" x="0" y="1080" style="fill: #e377c2; fill-opacity: 0.2; stroke: #e377c2; stroke-opacity: 0.2; stroke-width: 0.5"/>
    </g>
   </g>
   <g id="PolyCollection_5">
    <defs>
     <path id="m45f72f259c" d="M 406.115702 -278.03308 
L 406.115702 -257.633328 
L 443.008264 -261.962314 
L 479.900826 -277.215571 
L 516.793388 -217.725586 
L 553.68595 -273.97974 
L 590.578512 -251.804072 
L 627.471074 -300.558787 
L 664.363636 -280.774878 
L 701.256198 -297.711173 
L 738.14876 -235.745509 
L 775.041322 -281.084637 
L 811.933884 -303.588952 
L 848.826446 -293.046649 
L 885.719008 -295.468199 
L 922.61157 -307.908104 
L 959.504132 -261.985595 
L 996.396694 -263.372131 
L 1033.289256 -271.901759 
L 1070.181818 -243.843291 
L 1107.07438 -273.309357 
L 1143.966942 -288.557139 
L 1180.859504 -284.921175 
L 1217.752066 -294.55246 
L 1254.644628 -282.077348 
L 1291.53719 -324.526694 
L 1328.429752 -287.635107 
L 1328.429752 -506.860761 
L 1328.429752 -506.860761 
L 1291.53719 -429.505347 
L 1254.644628 -442.494889 
L 1217.752066 -437.566709 
L 1180.859504 -421.927595 
L 1143.966942 -416.214328 
L 1107.07438 -399.458674 
L 1070.181818 -366.461753 
L 1033.289256 -356.304937 
L 996.396694 -355.246581 
L 959.504132 -398.759463 
L 922.61157 -350.336188 
L 885.719008 -398.642619 
L 848.826446 -396.435947 
L 811.933884 -380.029477 
L 775.041322 -324.422253 
L 738.14876 -350.265981 
L 701.256198 -386.830317 
L 664.363636 -393.984894 
L 627.471074 -396.339195 
L 590.578512 -340.227439 
L 553.68595 -326.878629 
L 516.793388 -335.65727 
L 479.900826 -354.697267 
L 443.008264 -327.119474 
L 406.115702 -278.03308 
z
" style="stroke: #8c564b; stroke-opacity: 0.2; stroke-width: 0.5"/>
    </defs>
    <g clip-path="url(#p7575db0639)">
     <use xlink:href="#m45f72f259c" x="0" y="1080" style="fill: #8c564b; fill-opacity: 0.2; stroke: #8c564b; stroke-opacity: 0.2; stroke-width: 0.5"/>
    </g>
   </g>
   <g id="PolyCollection_6">
    <defs>
     <path id="m01e9814f69" d="M 406.115702 -278.532814 
L 406.115702 -260.635005 
L 443.008264 -251.097093 
L 479.900826 -256.240646 
L 516.793388 -236.546774 
L 553.68595 -265.332161 
L 590.578512 -277.899794 
L 627.471074 -273.162529 
L 664.363636 -255.288197 
L 701.256198 -260.579893 
L 738.14876 -265.366938 
L 775.041322 -278.409672 
L 811.933884 -267.415671 
L 848.826446 -263.473514 
L 885.719008 -287.78682 
L 922.61157 -309.267445 
L 959.504132 -293.132757 
L 996.396694 -310.444357 
L 1033.289256 -323.935486 
L 1070.181818 -304.471369 
L 1107.07438 -260.705018 
L 1143.966942 -314.076434 
L 1180.859504 -344.111921 
L 1217.752066 -391.810253 
L 1254.644628 -328.141217 
L 1291.53719 -301.395945 
L 1328.429752 -391.736709 
L 1328.429752 -617.679411 
L 1328.429752 -617.679411 
L 1291.53719 -562.985013 
L 1254.644628 -592.752154 
L 1217.752066 -675.136088 
L 1180.859504 -579.052963 
L 1143.966942 -582.94724 
L 1107.07438 -458.966362 
L 1070.181818 -435.636641 
L 1033.289256 -420.820459 
L 996.396694 -393.641559 
L 959.504132 -382.154715 
L 922.61157 -447.599876 
L 885.719008 -375.450298 
L 848.826446 -383.728723 
L 811.933884 -429.117254 
L 775.041322 -375.734176 
L 738.14876 -358.232262 
L 701.256198 -317.958616 
L 664.363636 -371.769741 
L 627.471074 -383.106489 
L 590.578512 -415.118701 
L 553.68595 -406.586847 
L 516.793388 -391.206863 
L 479.900826 -398.875098 
L 443.008264 -357.173174 
L 406.115702 -278.532814 
z
" style="stroke: #9467bd; stroke-opacity: 0.2; stroke-width: 0.5"/>
    </defs>
    <g clip-path="url(#p7575db0639)">
     <use xlink:href="#m01e9814f69" x="0" y="1080" style="fill: #9467bd; fill-opacity: 0.2; stroke: #9467bd; stroke-opacity: 0.2; stroke-width: 0.5"/>
    </g>
   </g>
   <g id="PolyCollection_7">
    <defs>
     <path id="m99d073fd99" d="M 406.115702 -354.886594 
L 406.115702 -291.485263 
L 443.008264 -215.945819 
L 479.900826 -228.567852 
L 516.793388 -236.823009 
L 553.68595 -242.517127 
L 590.578512 -158.437338 
L 627.471074 -298.567245 
L 664.363636 -211.470587 
L 701.256198 -206.629942 
L 738.14876 -304.987716 
L 775.041322 -268.284688 
L 811.933884 -257.540439 
L 848.826446 -245.536427 
L 885.719008 -348.190895 
L 922.61157 -277.478882 
L 959.504132 -262.794438 
L 996.396694 -431.663438 
L 1033.289256 -280.498326 
L 1070.181818 -534.784029 
L 1107.07438 -720.457915 
L 1143.966942 -536.910552 
L 1180.859504 -585.835085 
L 1217.752066 -524.706788 
L 1254.644628 -462.649823 
L 1291.53719 -634.046763 
L 1328.429752 -710.915631 
L 1328.429752 -910.04939 
L 1328.429752 -910.04939 
L 1291.53719 -858.206031 
L 1254.644628 -845.12496 
L 1217.752066 -849.085446 
L 1180.859504 -906.690558 
L 1143.966942 -841.948333 
L 1107.07438 -912.6 
L 1070.181818 -813.299825 
L 1033.289256 -674.479362 
L 996.396694 -752.912528 
L 959.504132 -728.643543 
L 922.61157 -573.300687 
L 885.719008 -589.882441 
L 848.826446 -378.290288 
L 811.933884 -488.368157 
L 775.041322 -552.243128 
L 738.14876 -529.886922 
L 701.256198 -425.522704 
L 664.363636 -418.568026 
L 627.471074 -452.579446 
L 590.578512 -309.750134 
L 553.68595 -344.484091 
L 516.793388 -382.339392 
L 479.900826 -353.249091 
L 443.008264 -255.192774 
L 406.115702 -354.886594 
z
" style="stroke: #d62728; stroke-opacity: 0.4; stroke-width: 0.5"/>
    </defs>
    <g clip-path="url(#p7575db0639)">
     <use xlink:href="#m99d073fd99" x="0" y="1080" style="fill: #d62728; fill-opacity: 0.4; stroke: #d62728; stroke-opacity: 0.4; stroke-width: 0.5"/>
    </g>
   </g>
   <g id="PolyCollection_8">
    <defs>
     <path id="m4fe70ea01f" d="M 406.115702 -442.493989 
L 406.115702 -249.850098 
L 443.008264 -267.452256 
L 479.900826 -319.81466 
L 516.793388 -302.529553 
L 553.68595 -283.719924 
L 590.578512 -306.875967 
L 627.471074 -340.47658 
L 664.363636 -472.577164 
L 701.256198 -520.541739 
L 738.14876 -563.757054 
L 775.041322 -491.594293 
L 811.933884 -585.636862 
L 848.826446 -573.573168 
L 885.719008 -675.615524 
L 922.61157 -624.539099 
L 959.504132 -616.049474 
L 996.396694 -695.870392 
L 1033.289256 -666.18747 
L 1070.181818 -732.70268 
L 1107.07438 -731.535315 
L 1143.966942 -749.398111 
L 1180.859504 -723.203603 
L 1217.752066 -682.530842 
L 1254.644628 -813.056818 
L 1291.53719 -782.250134 
L 1328.429752 -829.527286 
L 1328.429752 -883.543282 
L 1328.429752 -883.543282 
L 1291.53719 -868.554576 
L 1254.644628 -870.326505 
L 1217.752066 -845.349465 
L 1180.859504 -859.586823 
L 1143.966942 -825.149882 
L 1107.07438 -825.630015 
L 1070.181818 -846.372648 
L 1033.289256 -850.501854 
L 996.396694 -860.589067 
L 959.504132 -821.320178 
L 922.61157 -818.237393 
L 885.719008 -859.320008 
L 848.826446 -725.08166 
L 811.933884 -724.025003 
L 775.041322 -696.60159 
L 738.14876 -725.851216 
L 701.256198 -741.668143 
L 664.363636 -678.466441 
L 627.471074 -548.291315 
L 590.578512 -395.029423 
L 553.68595 -389.116718 
L 516.793388 -422.695851 
L 479.900826 -366.810053 
L 443.008264 -372.693917 
L 406.115702 -442.493989 
z
" style="stroke: #2ca02c; stroke-opacity: 0.4; stroke-width: 0.5"/>
    </defs>
    <g clip-path="url(#p7575db0639)">
     <use xlink:href="#m4fe70ea01f" x="0" y="1080" style="fill: #2ca02c; fill-opacity: 0.4; stroke: #2ca02c; stroke-opacity: 0.4; stroke-width: 0.5"/>
    </g>
   </g>
   <g id="line2d_23">
    <path d="M 406.115702 806.677918 
L 443.008264 840.878165 
L 479.900826 755.336066 
L 516.793388 783.74051 
L 553.68595 753.670209 
L 590.578512 733.096135 
L 627.471074 682.693851 
L 664.363636 673.886844 
L 701.256198 610.542152 
L 738.14876 659.578794 
L 775.041322 462.736202 
L 811.933884 508.852415 
L 848.826446 407.795087 
L 885.719008 457.218319 
L 922.61157 407.148702 
L 959.504132 488.897604 
L 996.396694 346.509118 
L 1033.289256 367.853806 
L 1070.181818 346.333602 
L 1107.07438 371.352898 
L 1143.966942 316.459096 
L 1180.859504 272.497152 
L 1217.752066 309.611899 
L 1254.644628 360.419564 
L 1291.53719 323.191693 
L 1328.429752 316.07246 
" clip-path="url(#p7575db0639)" style="fill: none; stroke: #808080; stroke-width: 4; stroke-linecap: square"/>
   </g>
   <g id="line2d_24">
    <path d="M 406.115702 817.718366 
L 443.008264 717.008783 
L 479.900826 663.76803 
L 516.793388 760.153163 
L 553.68595 690.676342 
L 590.578512 632.636461 
L 627.471074 600.824516 
L 664.363636 508.996474 
L 701.256198 551.206179 
L 738.14876 546.350853 
L 775.041322 520.634904 
L 811.933884 550.01144 
L 848.826446 505.610157 
L 885.719008 473.026472 
L 922.61157 451.160691 
L 959.504132 476.752965 
L 996.396694 589.582451 
L 1033.289256 522.46169 
L 1070.181818 595.817788 
L 1107.07438 519.76779 
L 1143.966942 588.421588 
L 1180.859504 593.075111 
L 1217.752066 568.820763 
L 1254.644628 492.970842 
L 1291.53719 546.195656 
L 1328.429752 561.663725 
" clip-path="url(#p7575db0639)" style="fill: none; stroke: #1f77b4; stroke-width: 4; stroke-linecap: square"/>
   </g>
   <g id="line2d_25">
    <path d="M 406.115702 729.10627 
L 443.008264 862.811502 
L 479.900826 764.203335 
L 516.793388 740.743679 
L 553.68595 739.415886 
L 590.578512 679.408998 
L 627.471074 711.875233 
L 664.363636 719.919681 
L 701.256198 560.285467 
L 738.14876 699.904322 
L 775.041322 623.9631 
L 811.933884 607.304812 
L 848.826446 683.830787 
L 885.719008 575.807481 
L 922.61157 664.019849 
L 959.504132 546.103979 
L 996.396694 592.164663 
L 1033.289256 458.84252 
L 1070.181818 486.198812 
L 1107.07438 413.985165 
L 1143.966942 360.828151 
L 1180.859504 393.482913 
L 1217.752066 312.633275 
L 1254.644628 317.418786 
L 1291.53719 234.885454 
L 1328.429752 231.516837 
" clip-path="url(#p7575db0639)" style="fill: none; stroke: #ff7f0e; stroke-width: 4; stroke-linecap: square"/>
   </g>
   <g id="line2d_26">
    <path d="M 406.115702 827.113967 
L 443.008264 791.26155 
L 479.900826 797.107668 
L 516.793388 755.915133 
L 553.68595 718.893446 
L 590.578512 630.727627 
L 627.471074 629.604387 
L 664.363636 600.054852 
L 701.256198 569.723379 
L 738.14876 587.121949 
L 775.041322 581.955827 
L 811.933884 565.627187 
L 848.826446 570.990992 
L 885.719008 561.062374 
L 922.61157 598.562786 
L 959.504132 629.037984 
L 996.396694 631.410532 
L 1033.289256 605.249119 
L 1070.181818 657.295849 
L 1107.07438 620.341417 
L 1143.966942 597.876199 
L 1180.859504 586.342568 
L 1217.752066 571.85358 
L 1254.644628 542.887187 
L 1291.53719 529.684887 
L 1328.429752 517.770645 
" clip-path="url(#p7575db0639)" style="fill: none; stroke: #e377c2; stroke-width: 4; stroke-linecap: square"/>
   </g>
   <g id="line2d_27">
    <path d="M 406.115702 812.166796 
L 443.008264 785.459106 
L 479.900826 764.043581 
L 516.793388 803.308572 
L 553.68595 779.570815 
L 590.578512 783.984244 
L 627.471074 731.551009 
L 664.363636 742.620114 
L 701.256198 737.729255 
L 738.14876 786.994255 
L 775.041322 777.246555 
L 811.933884 738.190785 
L 848.826446 735.258702 
L 885.719008 732.944591 
L 922.61157 750.877854 
L 959.504132 749.627471 
L 996.396694 770.690644 
L 1033.289256 765.896652 
L 1070.181818 774.847478 
L 1107.07438 743.615984 
L 1143.966942 727.614266 
L 1180.859504 726.575615 
L 1217.752066 713.940415 
L 1254.644628 717.713882 
L 1291.53719 702.98398 
L 1328.429752 682.752066 
" clip-path="url(#p7575db0639)" style="fill: none; stroke: #8c564b; stroke-width: 4; stroke-linecap: square"/>
   </g>
   <g id="line2d_28">
    <path d="M 406.115702 810.416091 
L 443.008264 775.864866 
L 479.900826 752.442128 
L 516.793388 766.123181 
L 553.68595 744.040496 
L 590.578512 733.490752 
L 627.471074 751.865491 
L 664.363636 766.471031 
L 701.256198 790.730745 
L 738.14876 768.2004 
L 775.041322 752.928076 
L 811.933884 731.733538 
L 848.826446 756.398881 
L 885.719008 748.381441 
L 922.61157 701.566339 
L 959.504132 742.356264 
L 996.396694 727.957042 
L 1033.289256 707.622028 
L 1070.181818 709.945995 
L 1107.07438 720.16431 
L 1143.966942 631.488163 
L 1180.859504 618.417558 
L 1217.752066 546.526829 
L 1254.644628 619.553314 
L 1291.53719 647.809521 
L 1328.429752 575.29194 
" clip-path="url(#p7575db0639)" style="fill: none; stroke: #9467bd; stroke-width: 4; stroke-linecap: square"/>
   </g>
   <g id="line2d_29">
    <path d="M 406.115702 756.814071 
L 443.008264 844.430703 
L 479.900826 789.091529 
L 516.793388 770.4188 
L 553.68595 786.499391 
L 590.578512 845.906264 
L 627.471074 704.426655 
L 664.363636 764.980693 
L 701.256198 763.923677 
L 738.14876 662.562681 
L 775.041322 669.736092 
L 811.933884 707.045702 
L 848.826446 768.086643 
L 885.719008 610.963332 
L 922.61157 654.610216 
L 959.504132 584.28101 
L 996.396694 487.712017 
L 1033.289256 602.511156 
L 1070.181818 405.958073 
L 1107.07438 263.471042 
L 1143.966942 390.570558 
L 1180.859504 333.737179 
L 1217.752066 393.103883 
L 1254.644628 426.112609 
L 1291.53719 333.873603 
L 1328.429752 269.51749 
" clip-path="url(#p7575db0639)" style="fill: none; stroke: #d62728; stroke-width: 8; stroke-linecap: square"/>
   </g>
   <g id="line2d_30">
    <path d="M 406.115702 733.827956 
L 443.008264 759.926914 
L 479.900826 736.687644 
L 516.793388 717.387298 
L 553.68595 743.581679 
L 590.578512 729.047305 
L 627.471074 635.616052 
L 664.363636 504.478198 
L 701.256198 448.895059 
L 738.14876 435.195865 
L 775.041322 485.902058 
L 811.933884 425.169067 
L 848.826446 430.672586 
L 885.719008 312.532234 
L 922.61157 358.611754 
L 959.504132 361.315174 
L 996.396694 301.77027 
L 1033.289256 321.655338 
L 1070.181818 290.462336 
L 1107.07438 301.417335 
L 1143.966942 292.726003 
L 1180.859504 288.604787 
L 1217.752066 316.059847 
L 1254.644628 238.308338 
L 1291.53719 254.597645 
L 1328.429752 223.464716 
" clip-path="url(#p7575db0639)" style="fill: none; stroke: #2ca02c; stroke-width: 8; stroke-linecap: square"/>
   </g>
   <g id="patch_3">
    <path d="M 360 961.2 
L 360 129.6 
" style="fill: none; stroke: #ffffff; stroke-linejoin: miter; stroke-linecap: square"/>
   </g>
   <g id="patch_4">
    <path d="M 1374.545455 961.2 
L 1374.545455 129.6 
" style="fill: none; stroke: #ffffff; stroke-linejoin: miter; stroke-linecap: square"/>
   </g>
   <g id="patch_5">
    <path d="M 360 961.2 
L 1374.545455 961.2 
" style="fill: none; stroke: #ffffff; stroke-linejoin: miter; stroke-linecap: square"/>
   </g>
   <g id="patch_6">
    <path d="M 360 129.6 
L 1374.545455 129.6 
" style="fill: none; stroke: #ffffff; stroke-linejoin: miter; stroke-linecap: square"/>
   </g>
  </g>
  <g id="axes_2">
   <g id="patch_7">
    <path d="M 1577.454545 961.2 
L 2592 961.2 
L 2592 129.6 
L 1577.454545 129.6 
z
" style="fill: #e5e5e5"/>
   </g>
   <g id="matplotlib.axis_3">
    <g id="xtick_7">
     <g id="line2d_31">
      <path d="M 1623.570248 961.2 
L 1623.570248 129.6 
" clip-path="url(#pb40e756d86)" style="fill: none; stroke: #ffffff; stroke-width: 0.8; stroke-linecap: square"/>
     </g>
     <g id="line2d_32">
      <g>
       <use xlink:href="#mc0de3c6f64" x="1623.570248" y="961.2" style="fill: #555555; stroke: #555555; stroke-width: 0.8"/>
      </g>
     </g>
     <g id="text_15">
      <!-- 0.00 -->
      <g style="fill: #555555" transform="translate(1581.26556 997.074063) scale(0.38 -0.38)">
       <use xlink:href="#DejaVuSans-30"/>
       <use xlink:href="#DejaVuSans-2e" x="63.623047"/>
       <use xlink:href="#DejaVuSans-30" x="95.410156"/>
       <use xlink:href="#DejaVuSans-30" x="159.033203"/>
      </g>
     </g>
    </g>
    <g id="xtick_8">
     <g id="line2d_33">
      <path d="M 1777.289256 961.2 
L 1777.289256 129.6 
" clip-path="url(#pb40e756d86)" style="fill: none; stroke: #ffffff; stroke-width: 0.8; stroke-linecap: square"/>
     </g>
     <g id="line2d_34">
      <g>
       <use xlink:href="#mc0de3c6f64" x="1777.289256" y="961.2" style="fill: #555555; stroke: #555555; stroke-width: 0.8"/>
      </g>
     </g>
     <g id="text_16">
      <!-- 0.25 -->
      <g style="fill: #555555" transform="translate(1734.984569 997.074063) scale(0.38 -0.38)">
       <use xlink:href="#DejaVuSans-30"/>
       <use xlink:href="#DejaVuSans-2e" x="63.623047"/>
       <use xlink:href="#DejaVuSans-32" x="95.410156"/>
       <use xlink:href="#DejaVuSans-35" x="159.033203"/>
      </g>
     </g>
    </g>
    <g id="xtick_9">
     <g id="line2d_35">
      <path d="M 1931.008264 961.2 
L 1931.008264 129.6 
" clip-path="url(#pb40e756d86)" style="fill: none; stroke: #ffffff; stroke-width: 0.8; stroke-linecap: square"/>
     </g>
     <g id="line2d_36">
      <g>
       <use xlink:href="#mc0de3c6f64" x="1931.008264" y="961.2" style="fill: #555555; stroke: #555555; stroke-width: 0.8"/>
      </g>
     </g>
     <g id="text_17">
      <!-- 0.50 -->
      <g style="fill: #555555" transform="translate(1888.703577 997.074063) scale(0.38 -0.38)">
       <use xlink:href="#DejaVuSans-30"/>
       <use xlink:href="#DejaVuSans-2e" x="63.623047"/>
       <use xlink:href="#DejaVuSans-35" x="95.410156"/>
       <use xlink:href="#DejaVuSans-30" x="159.033203"/>
      </g>
     </g>
    </g>
    <g id="xtick_10">
     <g id="line2d_37">
      <path d="M 2084.727273 961.2 
L 2084.727273 129.6 
" clip-path="url(#pb40e756d86)" style="fill: none; stroke: #ffffff; stroke-width: 0.8; stroke-linecap: square"/>
     </g>
     <g id="line2d_38">
      <g>
       <use xlink:href="#mc0de3c6f64" x="2084.727273" y="961.2" style="fill: #555555; stroke: #555555; stroke-width: 0.8"/>
      </g>
     </g>
     <g id="text_18">
      <!-- 0.75 -->
      <g style="fill: #555555" transform="translate(2042.422585 997.074063) scale(0.38 -0.38)">
       <defs>
        <path id="DejaVuSans-37" d="M 525 4666 
L 3525 4666 
L 3525 4397 
L 1831 0 
L 1172 0 
L 2766 4134 
L 525 4134 
L 525 4666 
z
" transform="scale(0.015625)"/>
       </defs>
       <use xlink:href="#DejaVuSans-30"/>
       <use xlink:href="#DejaVuSans-2e" x="63.623047"/>
       <use xlink:href="#DejaVuSans-37" x="95.410156"/>
       <use xlink:href="#DejaVuSans-35" x="159.033203"/>
      </g>
     </g>
    </g>
    <g id="xtick_11">
     <g id="line2d_39">
      <path d="M 2238.446281 961.2 
L 2238.446281 129.6 
" clip-path="url(#pb40e756d86)" style="fill: none; stroke: #ffffff; stroke-width: 0.8; stroke-linecap: square"/>
     </g>
     <g id="line2d_40">
      <g>
       <use xlink:href="#mc0de3c6f64" x="2238.446281" y="961.2" style="fill: #555555; stroke: #555555; stroke-width: 0.8"/>
      </g>
     </g>
     <g id="text_19">
      <!-- 1.00 -->
      <g style="fill: #555555" transform="translate(2196.141593 997.074063) scale(0.38 -0.38)">
       <use xlink:href="#DejaVuSans-31"/>
       <use xlink:href="#DejaVuSans-2e" x="63.623047"/>
       <use xlink:href="#DejaVuSans-30" x="95.410156"/>
       <use xlink:href="#DejaVuSans-30" x="159.033203"/>
      </g>
     </g>
    </g>
    <g id="xtick_12">
     <g id="line2d_41">
      <path d="M 2392.165289 961.2 
L 2392.165289 129.6 
" clip-path="url(#pb40e756d86)" style="fill: none; stroke: #ffffff; stroke-width: 0.8; stroke-linecap: square"/>
     </g>
     <g id="line2d_42">
      <g>
       <use xlink:href="#mc0de3c6f64" x="2392.165289" y="961.2" style="fill: #555555; stroke: #555555; stroke-width: 0.8"/>
      </g>
     </g>
     <g id="text_20">
      <!-- 1.25 -->
      <g style="fill: #555555" transform="translate(2349.860602 997.074063) scale(0.38 -0.38)">
       <use xlink:href="#DejaVuSans-31"/>
       <use xlink:href="#DejaVuSans-2e" x="63.623047"/>
       <use xlink:href="#DejaVuSans-32" x="95.410156"/>
       <use xlink:href="#DejaVuSans-35" x="159.033203"/>
      </g>
     </g>
    </g>
    <g id="xtick_13">
     <g id="line2d_43">
      <path d="M 2545.884298 961.2 
L 2545.884298 129.6 
" clip-path="url(#pb40e756d86)" style="fill: none; stroke: #ffffff; stroke-width: 0.8; stroke-linecap: square"/>
     </g>
     <g id="line2d_44">
      <g>
       <use xlink:href="#mc0de3c6f64" x="2545.884298" y="961.2" style="fill: #555555; stroke: #555555; stroke-width: 0.8"/>
      </g>
     </g>
     <g id="text_21">
      <!-- 1.50 -->
      <g style="fill: #555555" transform="translate(2503.57961 997.074063) scale(0.38 -0.38)">
       <use xlink:href="#DejaVuSans-31"/>
       <use xlink:href="#DejaVuSans-2e" x="63.623047"/>
       <use xlink:href="#DejaVuSans-35" x="95.410156"/>
       <use xlink:href="#DejaVuSans-30" x="159.033203"/>
      </g>
     </g>
    </g>
    <g id="text_22">
     <!-- Step # -->
     <g style="fill: #555555" transform="translate(2006.459148 1043.62575) scale(0.456 -0.456)">
      <use xlink:href="#DejaVuSans-53"/>
      <use xlink:href="#DejaVuSans-74" x="63.476562"/>
      <use xlink:href="#DejaVuSans-65" x="102.685547"/>
      <use xlink:href="#DejaVuSans-70" x="164.208984"/>
      <use xlink:href="#DejaVuSans-20" x="227.685547"/>
      <use xlink:href="#DejaVuSans-23" x="259.472656"/>
     </g>
    </g>
    <g id="text_23">
     <!-- 1e6 -->
     <g style="fill: #555555" transform="translate(2520.263125 1036.850938) scale(0.38 -0.38)">
      <use xlink:href="#DejaVuSans-31"/>
      <use xlink:href="#DejaVuSans-65" x="63.623047"/>
      <use xlink:href="#DejaVuSans-36" x="125.146484"/>
     </g>
    </g>
   </g>
   <g id="matplotlib.axis_4">
    <g id="ytick_6">
     <g id="line2d_45">
      <path d="M 1577.454545 857.25 
L 2592 857.25 
" clip-path="url(#pb40e756d86)" style="fill: none; stroke: #ffffff; stroke-width: 0.8; stroke-linecap: square"/>
     </g>
     <g id="line2d_46">
      <g>
       <use xlink:href="#mb36e92d527" x="1577.454545" y="857.25" style="fill: #555555; stroke: #555555; stroke-width: 0.8"/>
      </g>
     </g>
     <g id="text_24">
      <!-- −200 -->
      <g style="fill: #555555" transform="translate(1466.079233 871.687031) scale(0.38 -0.38)">
       <use xlink:href="#DejaVuSans-2212"/>
       <use xlink:href="#DejaVuSans-32" x="83.789062"/>
       <use xlink:href="#DejaVuSans-30" x="147.412109"/>
       <use xlink:href="#DejaVuSans-30" x="211.035156"/>
      </g>
     </g>
    </g>
    <g id="ytick_7">
     <g id="line2d_47">
      <path d="M 1577.454545 753.3 
L 2592 753.3 
" clip-path="url(#pb40e756d86)" style="fill: none; stroke: #ffffff; stroke-width: 0.8; stroke-linecap: square"/>
     </g>
     <g id="line2d_48">
      <g>
       <use xlink:href="#mb36e92d527" x="1577.454545" y="753.3" style="fill: #555555; stroke: #555555; stroke-width: 0.8"/>
      </g>
     </g>
     <g id="text_25">
      <!-- −150 -->
      <g style="fill: #555555" transform="translate(1466.079233 767.737031) scale(0.38 -0.38)">
       <use xlink:href="#DejaVuSans-2212"/>
       <use xlink:href="#DejaVuSans-31" x="83.789062"/>
       <use xlink:href="#DejaVuSans-35" x="147.412109"/>
       <use xlink:href="#DejaVuSans-30" x="211.035156"/>
      </g>
     </g>
    </g>
    <g id="ytick_8">
     <g id="line2d_49">
      <path d="M 1577.454545 649.35 
L 2592 649.35 
" clip-path="url(#pb40e756d86)" style="fill: none; stroke: #ffffff; stroke-width: 0.8; stroke-linecap: square"/>
     </g>
     <g id="line2d_50">
      <g>
       <use xlink:href="#mb36e92d527" x="1577.454545" y="649.35" style="fill: #555555; stroke: #555555; stroke-width: 0.8"/>
      </g>
     </g>
     <g id="text_26">
      <!-- −100 -->
      <g style="fill: #555555" transform="translate(1466.079233 663.787031) scale(0.38 -0.38)">
       <use xlink:href="#DejaVuSans-2212"/>
       <use xlink:href="#DejaVuSans-31" x="83.789062"/>
       <use xlink:href="#DejaVuSans-30" x="147.412109"/>
       <use xlink:href="#DejaVuSans-30" x="211.035156"/>
      </g>
     </g>
    </g>
    <g id="ytick_9">
     <g id="line2d_51">
      <path d="M 1577.454545 545.4 
L 2592 545.4 
" clip-path="url(#pb40e756d86)" style="fill: none; stroke: #ffffff; stroke-width: 0.8; stroke-linecap: square"/>
     </g>
     <g id="line2d_52">
      <g>
       <use xlink:href="#mb36e92d527" x="1577.454545" y="545.4" style="fill: #555555; stroke: #555555; stroke-width: 0.8"/>
      </g>
     </g>
     <g id="text_27">
      <!-- −50 -->
      <g style="fill: #555555" transform="translate(1490.256733 559.837031) scale(0.38 -0.38)">
       <use xlink:href="#DejaVuSans-2212"/>
       <use xlink:href="#DejaVuSans-35" x="83.789062"/>
       <use xlink:href="#DejaVuSans-30" x="147.412109"/>
      </g>
     </g>
    </g>
    <g id="ytick_10">
     <g id="line2d_53">
      <path d="M 1577.454545 441.45 
L 2592 441.45 
" clip-path="url(#pb40e756d86)" style="fill: none; stroke: #ffffff; stroke-width: 0.8; stroke-linecap: square"/>
     </g>
     <g id="line2d_54">
      <g>
       <use xlink:href="#mb36e92d527" x="1577.454545" y="441.45" style="fill: #555555; stroke: #555555; stroke-width: 0.8"/>
      </g>
     </g>
     <g id="text_28">
      <!-- 0 -->
      <g style="fill: #555555" transform="translate(1546.277045 455.887031) scale(0.38 -0.38)">
       <use xlink:href="#DejaVuSans-30"/>
      </g>
     </g>
    </g>
    <g id="ytick_11">
     <g id="line2d_55">
      <path d="M 1577.454545 337.5 
L 2592 337.5 
" clip-path="url(#pb40e756d86)" style="fill: none; stroke: #ffffff; stroke-width: 0.8; stroke-linecap: square"/>
     </g>
     <g id="line2d_56">
      <g>
       <use xlink:href="#mb36e92d527" x="1577.454545" y="337.5" style="fill: #555555; stroke: #555555; stroke-width: 0.8"/>
      </g>
     </g>
     <g id="text_29">
      <!-- 50 -->
      <g style="fill: #555555" transform="translate(1522.099545 351.937031) scale(0.38 -0.38)">
       <use xlink:href="#DejaVuSans-35"/>
       <use xlink:href="#DejaVuSans-30" x="63.623047"/>
      </g>
     </g>
    </g>
    <g id="ytick_12">
     <g id="line2d_57">
      <path d="M 1577.454545 233.55 
L 2592 233.55 
" clip-path="url(#pb40e756d86)" style="fill: none; stroke: #ffffff; stroke-width: 0.8; stroke-linecap: square"/>
     </g>
     <g id="line2d_58">
      <g>
       <use xlink:href="#mb36e92d527" x="1577.454545" y="233.55" style="fill: #555555; stroke: #555555; stroke-width: 0.8"/>
      </g>
     </g>
     <g id="text_30">
      <!-- 100 -->
      <g style="fill: #555555" transform="translate(1497.922045 247.987031) scale(0.38 -0.38)">
       <use xlink:href="#DejaVuSans-31"/>
       <use xlink:href="#DejaVuSans-30" x="63.623047"/>
       <use xlink:href="#DejaVuSans-30" x="127.246094"/>
      </g>
     </g>
    </g>
    <g id="text_31">
     <!-- Average Team Reward -->
     <g style="fill: #555555" transform="translate(1452.595858 798.69375) rotate(-90) scale(0.456 -0.456)">
      <use xlink:href="#DejaVuSans-41"/>
      <use xlink:href="#DejaVuSans-76" x="62.533203"/>
      <use xlink:href="#DejaVuSans-65" x="121.712891"/>
      <use xlink:href="#DejaVuSans-72" x="183.236328"/>
      <use xlink:href="#DejaVuSans-61" x="224.349609"/>
      <use xlink:href="#DejaVuSans-67" x="285.628906"/>
      <use xlink:href="#DejaVuSans-65" x="349.105469"/>
      <use xlink:href="#DejaVuSans-20" x="410.628906"/>
      <use xlink:href="#DejaVuSans-54" x="442.416016"/>
      <use xlink:href="#DejaVuSans-65" x="486.5"/>
      <use xlink:href="#DejaVuSans-61" x="548.023438"/>
      <use xlink:href="#DejaVuSans-6d" x="609.302734"/>
      <use xlink:href="#DejaVuSans-20" x="706.714844"/>
      <use xlink:href="#DejaVuSans-52" x="738.501953"/>
      <use xlink:href="#DejaVuSans-65" x="803.484375"/>
      <use xlink:href="#DejaVuSans-77" x="865.007812"/>
      <use xlink:href="#DejaVuSans-61" x="946.794922"/>
      <use xlink:href="#DejaVuSans-72" x="1008.074219"/>
      <use xlink:href="#DejaVuSans-64" x="1047.4375"/>
     </g>
    </g>
   </g>
   <g id="PolyCollection_9">
    <defs>
     <path id="m5c72a4e088" d="M 1623.570248 -282.349553 
L 1623.570248 -236.249883 
L 1660.46281 -164.136416 
L 1697.355372 -217.705958 
L 1734.247934 -258.488821 
L 1771.140496 -247.703466 
L 1808.033058 -281.410947 
L 1844.92562 -330.264424 
L 1881.818182 -436.73007 
L 1918.710744 -377.871066 
L 1955.603306 -409.407321 
L 1992.495868 -419.362768 
L 2029.38843 -447.787417 
L 2066.280992 -333.442792 
L 2103.173554 -443.743476 
L 2140.066116 -374.102082 
L 2176.958678 -337.661627 
L 2213.85124 -333.164918 
L 2250.743802 -417.686613 
L 2287.636364 -344.994929 
L 2324.528926 -322.138591 
L 2361.421488 -387.406431 
L 2398.31405 -549.493761 
L 2435.206612 -315.840317 
L 2472.099174 -483.909649 
L 2508.991736 -531.550626 
L 2545.884298 -414.985584 
L 2545.884298 -532.641697 
L 2545.884298 -532.641697 
L 2508.991736 -649.407687 
L 2472.099174 -546.454835 
L 2435.206612 -481.00174 
L 2398.31405 -654.364721 
L 2361.421488 -607.845039 
L 2324.528926 -519.894268 
L 2287.636364 -482.705116 
L 2250.743802 -641.478055 
L 2213.85124 -597.66163 
L 2176.958678 -530.548282 
L 2140.066116 -559.469623 
L 2103.173554 -586.535272 
L 2066.280992 -494.620047 
L 2029.38843 -588.569526 
L 1992.495868 -585.340466 
L 1955.603306 -631.277076 
L 1918.710744 -595.321173 
L 1881.818182 -495.008462 
L 1844.92562 -486.955338 
L 1808.033058 -362.429674 
L 1771.140496 -405.10274 
L 1734.247934 -350.313403 
L 1697.355372 -346.20209 
L 1660.46281 -264.267645 
L 1623.570248 -282.349553 
z
" style="stroke: #808080; stroke-opacity: 0.2; stroke-width: 0.5"/>
    </defs>
    <g clip-path="url(#pb40e756d86)">
     <use xlink:href="#m5c72a4e088" x="0" y="1080" style="fill: #808080; fill-opacity: 0.2; stroke: #808080; stroke-opacity: 0.2; stroke-width: 0.5"/>
    </g>
   </g>
   <g id="PolyCollection_10">
    <defs>
     <path id="m7cb3870640" d="M 1623.570248 -359.91978 
L 1623.570248 -240.493451 
L 1660.46281 -189.124934 
L 1697.355372 -278.370478 
L 1734.247934 -476.708362 
L 1771.140496 -600.537321 
L 1808.033058 -546.797938 
L 1844.92562 -442.14447 
L 1881.818182 -635.030761 
L 1918.710744 -645.435193 
L 1955.603306 -600.448882 
L 1992.495868 -372.367325 
L 2029.38843 -423.89614 
L 2066.280992 -511.582427 
L 2103.173554 -375.204457 
L 2140.066116 -539.543121 
L 2176.958678 -438.234539 
L 2213.85124 -432.515902 
L 2250.743802 -500.369638 
L 2287.636364 -519.362248 
L 2324.528926 -621.633488 
L 2361.421488 -625.505757 
L 2398.31405 -545.603174 
L 2435.206612 -545.76302 
L 2472.099174 -557.651442 
L 2508.991736 -460.552421 
L 2545.884298 -654.766595 
L 2545.884298 -758.691807 
L 2545.884298 -758.691807 
L 2508.991736 -685.240688 
L 2472.099174 -794.311203 
L 2435.206612 -666.606962 
L 2398.31405 -796.923367 
L 2361.421488 -796.280539 
L 2324.528926 -754.908669 
L 2287.636364 -716.08056 
L 2250.743802 -670.142857 
L 2213.85124 -742.798225 
L 2176.958678 -698.738074 
L 2140.066116 -708.723808 
L 2103.173554 -677.881595 
L 2066.280992 -617.135025 
L 2029.38843 -692.823935 
L 1992.495868 -519.426266 
L 1955.603306 -690.705933 
L 1918.710744 -688.749702 
L 1881.818182 -742.430169 
L 1844.92562 -704.132878 
L 1808.033058 -698.793002 
L 1771.140496 -696.606671 
L 1734.247934 -643.249296 
L 1697.355372 -453.409203 
L 1660.46281 -468.874282 
L 1623.570248 -359.91978 
z
" style="stroke: #1f77b4; stroke-opacity: 0.2; stroke-width: 0.5"/>
    </defs>
    <g clip-path="url(#pb40e756d86)">
     <use xlink:href="#m7cb3870640" x="0" y="1080" style="fill: #1f77b4; fill-opacity: 0.2; stroke: #1f77b4; stroke-opacity: 0.2; stroke-width: 0.5"/>
    </g>
   </g>
   <g id="PolyCollection_11">
    <defs>
     <path id="mcfe66be125" d="M 1623.570248 -397.175457 
L 1623.570248 -63.139545 
L 1660.46281 -181.378119 
L 1697.355372 -215.076305 
L 1734.247934 -135.513212 
L 1771.140496 -128.635358 
L 1808.033058 -195.529383 
L 1844.92562 -148.045235 
L 1881.818182 -190.062743 
L 1918.710744 -227.261996 
L 1955.603306 -230.436315 
L 1992.495868 -374.723888 
L 2029.38843 -246.6526 
L 2066.280992 -289.391246 
L 2103.173554 -283.942246 
L 2140.066116 -455.096286 
L 2176.958678 -373.576272 
L 2213.85124 -343.609762 
L 2250.743802 -383.211455 
L 2287.636364 -546.485523 
L 2324.528926 -547.421071 
L 2361.421488 -655.382181 
L 2398.31405 -624.703474 
L 2435.206612 -707.198379 
L 2472.099174 -714.639913 
L 2508.991736 -792.579189 
L 2545.884298 -522.381146 
L 2545.884298 -735.174687 
L 2545.884298 -735.174687 
L 2508.991736 -844.243887 
L 2472.099174 -819.788842 
L 2435.206612 -786.002906 
L 2398.31405 -798.305185 
L 2361.421488 -759.95591 
L 2324.528926 -774.742401 
L 2287.636364 -697.980275 
L 2250.743802 -667.456579 
L 2213.85124 -635.622713 
L 2176.958678 -722.436538 
L 2140.066116 -760.112583 
L 2103.173554 -410.359279 
L 2066.280992 -481.450719 
L 2029.38843 -590.248151 
L 1992.495868 -561.028899 
L 1955.603306 -419.561295 
L 1918.710744 -345.350753 
L 1881.818182 -459.921537 
L 1844.92562 -402.335553 
L 1808.033058 -477.000044 
L 1771.140496 -475.055738 
L 1734.247934 -566.909014 
L 1697.355372 -309.111428 
L 1660.46281 -296.16425 
L 1623.570248 -397.175457 
z
" style="stroke: #ff7f0e; stroke-opacity: 0.2; stroke-width: 0.5"/>
    </defs>
    <g clip-path="url(#pb40e756d86)">
     <use xlink:href="#mcfe66be125" x="0" y="1080" style="fill: #ff7f0e; fill-opacity: 0.2; stroke: #ff7f0e; stroke-opacity: 0.2; stroke-width: 0.5"/>
    </g>
   </g>
   <g id="PolyCollection_12">
    <defs>
     <path id="m96eb0cece3" d="M 1623.570248 -242.376766 
L 1623.570248 -222.81362 
L 1660.46281 -225.096382 
L 1697.355372 -216.522396 
L 1734.247934 -275.148249 
L 1771.140496 -288.751733 
L 1808.033058 -291.508952 
L 1844.92562 -285.780453 
L 1881.818182 -313.270512 
L 1918.710744 -325.19267 
L 1955.603306 -300.972904 
L 1992.495868 -359.133978 
L 2029.38843 -431.306613 
L 2066.280992 -427.022546 
L 2103.173554 -480.527178 
L 2140.066116 -442.175114 
L 2176.958678 -469.750389 
L 2213.85124 -445.233829 
L 2250.743802 -473.357967 
L 2287.636364 -437.027371 
L 2324.528926 -493.126034 
L 2361.421488 -584.741961 
L 2398.31405 -521.880293 
L 2435.206612 -583.59259 
L 2472.099174 -558.749523 
L 2508.991736 -628.813517 
L 2545.884298 -659.981672 
L 2545.884298 -756.674196 
L 2545.884298 -756.674196 
L 2508.991736 -692.805735 
L 2472.099174 -708.491187 
L 2435.206612 -715.827929 
L 2398.31405 -694.590536 
L 2361.421488 -659.771221 
L 2324.528926 -653.765679 
L 2287.636364 -647.169285 
L 2250.743802 -635.612064 
L 2213.85124 -654.907226 
L 2176.958678 -622.755226 
L 2140.066116 -621.277429 
L 2103.173554 -613.509767 
L 2066.280992 -603.386809 
L 2029.38843 -602.586301 
L 1992.495868 -602.927426 
L 1955.603306 -570.996798 
L 1918.710744 -514.106053 
L 1881.818182 -481.144027 
L 1844.92562 -459.695538 
L 1808.033058 -391.039494 
L 1771.140496 -415.683288 
L 1734.247934 -402.575896 
L 1697.355372 -248.536231 
L 1660.46281 -263.717776 
L 1623.570248 -242.376766 
z
" style="stroke: #e377c2; stroke-opacity: 0.2; stroke-width: 0.5"/>
    </defs>
    <g clip-path="url(#pb40e756d86)">
     <use xlink:href="#m96eb0cece3" x="0" y="1080" style="fill: #e377c2; fill-opacity: 0.2; stroke: #e377c2; stroke-opacity: 0.2; stroke-width: 0.5"/>
    </g>
   </g>
   <g id="PolyCollection_13">
    <defs>
     <path id="mfb62684ea6" d="M 1623.570248 -283.690646 
L 1623.570248 -238.396032 
L 1660.46281 -238.711591 
L 1697.355372 -175.159625 
L 1734.247934 -194.099717 
L 1771.140496 -198.534813 
L 1808.033058 -183.744181 
L 1844.92562 -318.493866 
L 1881.818182 -230.040008 
L 1918.710744 -249.696098 
L 1955.603306 -247.985966 
L 1992.495868 -285.988965 
L 2029.38843 -171.913107 
L 2066.280992 -233.300025 
L 2103.173554 -264.866332 
L 2140.066116 -155.215365 
L 2176.958678 -267.524447 
L 2213.85124 -239.335519 
L 2250.743802 -225.923562 
L 2287.636364 -241.524998 
L 2324.528926 -237.526862 
L 2361.421488 -235.496824 
L 2398.31405 -244.215226 
L 2435.206612 -244.683567 
L 2472.099174 -188.349312 
L 2508.991736 -174.763639 
L 2545.884298 -235.468363 
L 2545.884298 -430.847937 
L 2545.884298 -430.847937 
L 2508.991736 -555.129149 
L 2472.099174 -555.759869 
L 2435.206612 -592.424539 
L 2398.31405 -608.296235 
L 2361.421488 -686.194294 
L 2324.528926 -597.593894 
L 2287.636364 -510.728794 
L 2250.743802 -680.868214 
L 2213.85124 -653.508653 
L 2176.958678 -450.998134 
L 2140.066116 -347.933509 
L 2103.173554 -435.609754 
L 2066.280992 -306.843469 
L 2029.38843 -509.55533 
L 1992.495868 -531.873162 
L 1955.603306 -447.698363 
L 1918.710744 -596.773594 
L 1881.818182 -427.196557 
L 1844.92562 -489.44334 
L 1808.033058 -452.522807 
L 1771.140496 -403.520406 
L 1734.247934 -408.421171 
L 1697.355372 -331.996906 
L 1660.46281 -329.165176 
L 1623.570248 -283.690646 
z
" style="stroke: #8c564b; stroke-opacity: 0.2; stroke-width: 0.5"/>
    </defs>
    <g clip-path="url(#pb40e756d86)">
     <use xlink:href="#mfb62684ea6" x="0" y="1080" style="fill: #8c564b; fill-opacity: 0.2; stroke: #8c564b; stroke-opacity: 0.2; stroke-width: 0.5"/>
    </g>
   </g>
   <g id="PolyCollection_14">
    <defs>
     <path id="md6c4b9ebbf" d="M 1623.570248 -286.181127 
L 1623.570248 -241.682926 
L 1660.46281 -255.150355 
L 1697.355372 -206.429068 
L 1734.247934 -215.634354 
L 1771.140496 -159.36528 
L 1808.033058 -171.676723 
L 1844.92562 -231.911136 
L 1881.818182 -242.014296 
L 1918.710744 -238.003572 
L 1955.603306 -272.217358 
L 1992.495868 -274.689704 
L 2029.38843 -276.60673 
L 2066.280992 -242.364186 
L 2103.173554 -219.279145 
L 2140.066116 -306.026174 
L 2176.958678 -281.269798 
L 2213.85124 -282.86371 
L 2250.743802 -390.05286 
L 2287.636364 -341.741769 
L 2324.528926 -309.496373 
L 2361.421488 -286.290995 
L 2398.31405 -270.44578 
L 2435.206612 -343.71866 
L 2472.099174 -408.913785 
L 2508.991736 -530.555272 
L 2545.884298 -556.970047 
L 2545.884298 -792.226819 
L 2545.884298 -792.226819 
L 2508.991736 -666.890604 
L 2472.099174 -698.136578 
L 2435.206612 -662.078631 
L 2398.31405 -528.577979 
L 2361.421488 -491.726076 
L 2324.528926 -549.788131 
L 2287.636364 -609.361394 
L 2250.743802 -569.526591 
L 2213.85124 -661.572944 
L 2176.958678 -544.960884 
L 2140.066116 -484.350916 
L 2103.173554 -465.216548 
L 2066.280992 -369.540821 
L 2029.38843 -495.344142 
L 1992.495868 -510.891045 
L 1955.603306 -441.542232 
L 1918.710744 -349.695084 
L 1881.818182 -479.35038 
L 1844.92562 -493.561359 
L 1808.033058 -290.410719 
L 1771.140496 -299.773499 
L 1734.247934 -362.592089 
L 1697.355372 -348.070915 
L 1660.46281 -345.778648 
L 1623.570248 -286.181127 
z
" style="stroke: #9467bd; stroke-opacity: 0.2; stroke-width: 0.5"/>
    </defs>
    <g clip-path="url(#pb40e756d86)">
     <use xlink:href="#md6c4b9ebbf" x="0" y="1080" style="fill: #9467bd; fill-opacity: 0.2; stroke: #9467bd; stroke-opacity: 0.2; stroke-width: 0.5"/>
    </g>
   </g>
   <g id="PolyCollection_15">
    <defs>
     <path id="m1a39435e11" d="M 1623.570248 -300.843033 
L 1623.570248 -58.371046 
L 1660.46281 -199.082649 
L 1697.355372 -177.425468 
L 1734.247934 -230.660106 
L 1771.140496 -351.657674 
L 1808.033058 -182.986141 
L 1844.92562 -317.312373 
L 1881.818182 -333.29562 
L 1918.710744 -381.611527 
L 1955.603306 -381.204013 
L 1992.495868 -272.740885 
L 2029.38843 -471.975021 
L 2066.280992 -257.312211 
L 2103.173554 -189.473321 
L 2140.066116 -84.886426 
L 2176.958678 -236.70889 
L 2213.85124 -391.648716 
L 2250.743802 -586.157138 
L 2287.636364 -613.182961 
L 2324.528926 -562.147736 
L 2361.421488 -568.906893 
L 2398.31405 -375.760519 
L 2435.206612 -491.497836 
L 2472.099174 -448.912326 
L 2508.991736 -530.032027 
L 2545.884298 -640.715044 
L 2545.884298 -904.534227 
L 2545.884298 -904.534227 
L 2508.991736 -934.912933 
L 2472.099174 -861.370606 
L 2435.206612 -854.188248 
L 2398.31405 -865.194657 
L 2361.421488 -901.686143 
L 2324.528926 -841.627579 
L 2287.636364 -858.060803 
L 2250.743802 -834.571475 
L 2213.85124 -681.027649 
L 2176.958678 -836.980601 
L 2140.066116 -607.605177 
L 2103.173554 -533.075869 
L 2066.280992 -706.185949 
L 2029.38843 -725.445551 
L 1992.495868 -663.296919 
L 1955.603306 -683.709959 
L 1918.710744 -627.494197 
L 1881.818182 -603.320411 
L 1844.92562 -646.182834 
L 1808.033058 -648.839186 
L 1771.140496 -669.332014 
L 1734.247934 -332.800586 
L 1697.355372 -344.278379 
L 1660.46281 -271.391352 
L 1623.570248 -300.843033 
z
" style="stroke: #d62728; stroke-opacity: 0.4; stroke-width: 0.5"/>
    </defs>
    <g clip-path="url(#pb40e756d86)">
     <use xlink:href="#m1a39435e11" x="0" y="1080" style="fill: #d62728; fill-opacity: 0.4; stroke: #d62728; stroke-opacity: 0.4; stroke-width: 0.5"/>
    </g>
   </g>
   <g id="PolyCollection_16">
    <defs>
     <path id="m3ddc1b4897" d="M 1623.570248 -358.623967 
L 1623.570248 -190.902866 
L 1660.46281 -199.289541 
L 1697.355372 -226.694408 
L 1734.247934 -248.572263 
L 1771.140496 -261.449734 
L 1808.033058 -285.689428 
L 1844.92562 -311.759254 
L 1881.818182 -521.608071 
L 1918.710744 -482.913695 
L 1955.603306 -616.044908 
L 1992.495868 -599.829044 
L 2029.38843 -557.635076 
L 2066.280992 -506.729588 
L 2103.173554 -464.231805 
L 2140.066116 -643.659523 
L 2176.958678 -777.006171 
L 2213.85124 -743.292667 
L 2250.743802 -648.295373 
L 2287.636364 -746.243558 
L 2324.528926 -682.624298 
L 2361.421488 -713.53468 
L 2398.31405 -794.749064 
L 2435.206612 -535.741357 
L 2472.099174 -834.925161 
L 2508.991736 -825.291774 
L 2545.884298 -840.732128 
L 2545.884298 -845.69704 
L 2545.884298 -845.69704 
L 2508.991736 -846.135255 
L 2472.099174 -845.41122 
L 2435.206612 -912.107952 
L 2398.31405 -841.231066 
L 2361.421488 -853.358221 
L 2324.528926 -846.64224 
L 2287.636364 -816.000824 
L 2250.743802 -812.218758 
L 2213.85124 -824.679615 
L 2176.958678 -842.42542 
L 2140.066116 -840.549035 
L 2103.173554 -855.910806 
L 2066.280992 -778.440103 
L 2029.38843 -830.795066 
L 1992.495868 -771.809458 
L 1955.603306 -735.614303 
L 1918.710744 -745.791842 
L 1881.818182 -681.058301 
L 1844.92562 -625.835138 
L 1808.033058 -480.510874 
L 1771.140496 -324.038219 
L 1734.247934 -298.234961 
L 1697.355372 -302.880354 
L 1660.46281 -437.242358 
L 1623.570248 -358.623967 
z
" style="stroke: #2ca02c; stroke-opacity: 0.4; stroke-width: 0.5"/>
    </defs>
    <g clip-path="url(#pb40e756d86)">
     <use xlink:href="#m3ddc1b4897" x="0" y="1080" style="fill: #2ca02c; fill-opacity: 0.4; stroke: #2ca02c; stroke-opacity: 0.4; stroke-width: 0.5"/>
    </g>
   </g>
   <g id="line2d_59">
    <path d="M 1623.570248 820.700282 
L 1660.46281 865.797969 
L 1697.355372 798.045976 
L 1734.247934 775.598888 
L 1771.140496 753.596897 
L 1808.033058 758.07969 
L 1844.92562 671.390119 
L 1881.818182 614.130734 
L 1918.710744 593.403881 
L 1955.603306 559.657801 
L 1992.495868 577.648383 
L 2029.38843 561.821528 
L 2066.280992 665.968581 
L 2103.173554 564.860626 
L 2140.066116 613.214147 
L 2176.958678 645.895045 
L 2213.85124 614.586726 
L 2250.743802 550.417666 
L 2287.636364 666.149977 
L 2324.528926 658.983571 
L 2361.421488 582.374265 
L 2398.31405 478.070759 
L 2435.206612 681.578971 
L 2472.099174 564.817758 
L 2508.991736 489.520844 
L 2545.884298 606.18636 
" clip-path="url(#pb40e756d86)" style="fill: none; stroke: #808080; stroke-width: 4; stroke-linecap: square"/>
   </g>
   <g id="line2d_60">
    <path d="M 1623.570248 779.793384 
L 1660.46281 751.000392 
L 1697.355372 714.110159 
L 1734.247934 520.021171 
L 1771.140496 431.428004 
L 1808.033058 457.20453 
L 1844.92562 506.861326 
L 1881.818182 391.269535 
L 1918.710744 412.907552 
L 1955.603306 434.422593 
L 1992.495868 634.103204 
L 2029.38843 521.639962 
L 2066.280992 515.641274 
L 2103.173554 553.456974 
L 2140.066116 455.866536 
L 2176.958678 511.513693 
L 2213.85124 492.342937 
L 2250.743802 494.743752 
L 2287.636364 462.278596 
L 2324.528926 391.728922 
L 2361.421488 369.106852 
L 2398.31405 408.736729 
L 2435.206612 473.815009 
L 2472.099174 404.018677 
L 2508.991736 507.103446 
L 2545.884298 373.270799 
" clip-path="url(#pb40e756d86)" style="fill: none; stroke: #1f77b4; stroke-width: 4; stroke-linecap: square"/>
   </g>
   <g id="line2d_61">
    <path d="M 1623.570248 849.842499 
L 1660.46281 841.228815 
L 1697.355372 817.906134 
L 1734.247934 728.788887 
L 1771.140496 778.154452 
L 1808.033058 743.735286 
L 1844.92562 804.809606 
L 1881.818182 755.00786 
L 1918.710744 793.693625 
L 1955.603306 755.001195 
L 1992.495868 612.123607 
L 2029.38843 661.549624 
L 2066.280992 694.579018 
L 2103.173554 732.849237 
L 2140.066116 472.395566 
L 2176.958678 531.993595 
L 2213.85124 590.383763 
L 2250.743802 554.665983 
L 2287.636364 457.767101 
L 2324.528926 418.918264 
L 2361.421488 372.330954 
L 2398.31405 368.49567 
L 2435.206612 333.399358 
L 2472.099174 312.785622 
L 2508.991736 261.588462 
L 2545.884298 451.222083 
" clip-path="url(#pb40e756d86)" style="fill: none; stroke: #ff7f0e; stroke-width: 4; stroke-linecap: square"/>
   </g>
   <g id="line2d_62">
    <path d="M 1623.570248 847.404807 
L 1660.46281 835.592921 
L 1697.355372 847.470687 
L 1734.247934 741.137928 
L 1771.140496 727.78249 
L 1808.033058 738.725777 
L 1844.92562 707.262005 
L 1881.818182 682.79273 
L 1918.710744 660.350639 
L 1955.603306 644.015149 
L 1992.495868 598.969298 
L 2029.38843 563.053543 
L 2066.280992 564.795323 
L 2103.173554 532.981528 
L 2140.066116 548.273728 
L 2176.958678 533.747192 
L 2213.85124 529.929472 
L 2250.743802 525.514985 
L 2287.636364 537.901672 
L 2324.528926 506.554144 
L 2361.421488 457.743409 
L 2398.31405 471.764585 
L 2435.206612 430.289741 
L 2472.099174 446.379645 
L 2508.991736 419.190374 
L 2545.884298 371.672066 
" clip-path="url(#pb40e756d86)" style="fill: none; stroke: #e377c2; stroke-width: 4; stroke-linecap: square"/>
   </g>
   <g id="line2d_63">
    <path d="M 1623.570248 818.956661 
L 1660.46281 796.061617 
L 1697.355372 826.421735 
L 1734.247934 778.739556 
L 1771.140496 778.97239 
L 1808.033058 761.866506 
L 1844.92562 676.031397 
L 1881.818182 751.381717 
L 1918.710744 656.765154 
L 1955.603306 732.157836 
L 1992.495868 671.068937 
L 2029.38843 739.265781 
L 2066.280992 809.928253 
L 2103.173554 729.761957 
L 2140.066116 828.425563 
L 2176.958678 720.738709 
L 2213.85124 633.577914 
L 2250.743802 626.604112 
L 2287.636364 703.873104 
L 2324.528926 662.439622 
L 2361.421488 619.154441 
L 2398.31405 653.74427 
L 2435.206612 661.445947 
L 2472.099174 707.945409 
L 2508.991736 715.053606 
L 2545.884298 746.84185 
" clip-path="url(#pb40e756d86)" style="fill: none; stroke: #8c564b; stroke-width: 4; stroke-linecap: square"/>
   </g>
   <g id="line2d_64">
    <path d="M 1623.570248 816.067973 
L 1660.46281 779.535498 
L 1697.355372 802.750008 
L 1734.247934 790.886779 
L 1771.140496 850.430611 
L 1808.033058 848.956279 
L 1844.92562 717.263753 
L 1881.818182 719.317662 
L 1918.710744 786.150672 
L 1955.603306 723.120205 
L 1992.495868 687.209626 
L 2029.38843 694.024564 
L 2066.280992 774.047497 
L 2103.173554 737.752154 
L 2140.066116 684.811455 
L 2176.958678 666.884659 
L 2213.85124 607.781673 
L 2250.743802 600.210274 
L 2287.636364 604.448419 
L 2324.528926 650.357748 
L 2361.421488 690.991465 
L 2398.31405 680.48812 
L 2435.206612 577.101355 
L 2472.099174 526.474818 
L 2508.991736 481.277062 
L 2545.884298 405.401567 
" clip-path="url(#pb40e756d86)" style="fill: none; stroke: #9467bd; stroke-width: 4; stroke-linecap: square"/>
   </g>
   <g id="line2d_65">
    <path d="M 1623.570248 900.392961 
L 1660.46281 844.762999 
L 1697.355372 819.148077 
L 1734.247934 798.269654 
L 1771.140496 569.505156 
L 1808.033058 664.087337 
L 1844.92562 598.252396 
L 1881.818182 611.691984 
L 1918.710744 575.447138 
L 1955.603306 547.543014 
L 1992.495868 611.981098 
L 2029.38843 481.289714 
L 2066.280992 598.25092 
L 2103.173554 718.725405 
L 2140.066116 733.754199 
L 2176.958678 543.155254 
L 2213.85124 543.661817 
L 2250.743802 369.635694 
L 2287.636364 344.378118 
L 2324.528926 378.112343 
L 2361.421488 344.703482 
L 2398.31405 459.522412 
L 2435.206612 407.156958 
L 2472.099174 424.858534 
L 2508.991736 347.52752 
L 2545.884298 307.375364 
" clip-path="url(#pb40e756d86)" style="fill: none; stroke: #d62728; stroke-width: 8; stroke-linecap: square"/>
   </g>
   <g id="line2d_66">
    <path d="M 1623.570248 805.236583 
L 1660.46281 761.73405 
L 1697.355372 815.212619 
L 1734.247934 806.596388 
L 1771.140496 787.256023 
L 1808.033058 696.899849 
L 1844.92562 611.202804 
L 1881.818182 478.666814 
L 1918.710744 465.647231 
L 1955.603306 404.170394 
L 1992.495868 394.180749 
L 2029.38843 385.784929 
L 2066.280992 437.415155 
L 2103.173554 419.928694 
L 2140.066116 337.895721 
L 2176.958678 270.284204 
L 2213.85124 296.013859 
L 2250.743802 349.742935 
L 2287.636364 298.877809 
L 2324.528926 315.366731 
L 2361.421488 296.55355 
L 2398.31405 262.009935 
L 2435.206612 356.075346 
L 2472.099174 239.83181 
L 2508.991736 244.286486 
L 2545.884298 236.785416 
" clip-path="url(#pb40e756d86)" style="fill: none; stroke: #2ca02c; stroke-width: 8; stroke-linecap: square"/>
   </g>
   <g id="patch_8">
    <path d="M 1577.454545 961.2 
L 1577.454545 129.6 
" style="fill: none; stroke: #ffffff; stroke-linejoin: miter; stroke-linecap: square"/>
   </g>
   <g id="patch_9">
    <path d="M 2592 961.2 
L 2592 129.6 
" style="fill: none; stroke: #ffffff; stroke-linejoin: miter; stroke-linecap: square"/>
   </g>
   <g id="patch_10">
    <path d="M 1577.454545 961.2 
L 2592 961.2 
" style="fill: none; stroke: #ffffff; stroke-linejoin: miter; stroke-linecap: square"/>
   </g>
   <g id="patch_11">
    <path d="M 1577.454545 129.6 
L 2592 129.6 
" style="fill: none; stroke: #ffffff; stroke-linejoin: miter; stroke-linecap: square"/>
   </g>
   <g id="legend_1">
    <g id="patch_12">
     <path d="M 773.418182 112.968 
L 2136.953182 112.968 
Q 2144.553182 112.968 2144.553182 105.368 
L 2144.553182 -2.38575 
Q 2144.553182 -9.98575 2136.953182 -9.98575 
L 773.418182 -9.98575 
Q 765.818182 -9.98575 765.818182 -2.38575 
L 765.818182 105.368 
Q 765.818182 112.968 773.418182 112.968 
z
" style="fill: #e5e5e5; opacity: 0.8; stroke: #cccccc; stroke-width: 0.5; stroke-linejoin: miter"/>
    </g>
    <g id="line2d_67">
     <path d="M 781.018182 20.788313 
L 819.018182 20.788313 
L 857.018182 20.788313 
" style="fill: none; stroke: #808080; stroke-width: 10; stroke-linecap: square"/>
    </g>
    <g id="text_32">
     <!-- CQF -->
     <g transform="translate(887.418182 34.088313) scale(0.38 -0.38)">
      <defs>
       <path id="DejaVuSans-43" d="M 4122 4306 
L 4122 3641 
Q 3803 3938 3442 4084 
Q 3081 4231 2675 4231 
Q 1875 4231 1450 3742 
Q 1025 3253 1025 2328 
Q 1025 1406 1450 917 
Q 1875 428 2675 428 
Q 3081 428 3442 575 
Q 3803 722 4122 1019 
L 4122 359 
Q 3791 134 3420 21 
Q 3050 -91 2638 -91 
Q 1578 -91 968 557 
Q 359 1206 359 2328 
Q 359 3453 968 4101 
Q 1578 4750 2638 4750 
Q 3056 4750 3426 4639 
Q 3797 4528 4122 4306 
z
" transform="scale(0.015625)"/>
       <path id="DejaVuSans-51" d="M 2522 4238 
Q 1834 4238 1429 3725 
Q 1025 3213 1025 2328 
Q 1025 1447 1429 934 
Q 1834 422 2522 422 
Q 3209 422 3611 934 
Q 4013 1447 4013 2328 
Q 4013 3213 3611 3725 
Q 3209 4238 2522 4238 
z
M 3406 84 
L 4238 -825 
L 3475 -825 
L 2784 -78 
Q 2681 -84 2626 -87 
Q 2572 -91 2522 -91 
Q 1538 -91 948 567 
Q 359 1225 359 2328 
Q 359 3434 948 4092 
Q 1538 4750 2522 4750 
Q 3503 4750 4090 4092 
Q 4678 3434 4678 2328 
Q 4678 1516 4351 937 
Q 4025 359 3406 84 
z
" transform="scale(0.015625)"/>
       <path id="DejaVuSans-46" d="M 628 4666 
L 3309 4666 
L 3309 4134 
L 1259 4134 
L 1259 2759 
L 3109 2759 
L 3109 2228 
L 1259 2228 
L 1259 0 
L 628 0 
L 628 4666 
z
" transform="scale(0.015625)"/>
      </defs>
      <use xlink:href="#DejaVuSans-43"/>
      <use xlink:href="#DejaVuSans-51" x="69.824219"/>
      <use xlink:href="#DejaVuSans-46" x="148.535156"/>
     </g>
    </g>
    <g id="line2d_68">
     <path d="M 781.018182 76.565188 
L 819.018182 76.565188 
L 857.018182 76.565188 
" style="fill: none; stroke: #1f77b4; stroke-width: 10; stroke-linecap: square"/>
    </g>
    <g id="text_33">
     <!-- CDDPG -->
     <g transform="translate(887.418182 89.865188) scale(0.38 -0.38)">
      <defs>
       <path id="DejaVuSans-44" d="M 1259 4147 
L 1259 519 
L 2022 519 
Q 2988 519 3436 956 
Q 3884 1394 3884 2338 
Q 3884 3275 3436 3711 
Q 2988 4147 2022 4147 
L 1259 4147 
z
M 628 4666 
L 1925 4666 
Q 3281 4666 3915 4102 
Q 4550 3538 4550 2338 
Q 4550 1131 3912 565 
Q 3275 0 1925 0 
L 628 0 
L 628 4666 
z
" transform="scale(0.015625)"/>
       <path id="DejaVuSans-50" d="M 1259 4147 
L 1259 2394 
L 2053 2394 
Q 2494 2394 2734 2622 
Q 2975 2850 2975 3272 
Q 2975 3691 2734 3919 
Q 2494 4147 2053 4147 
L 1259 4147 
z
M 628 4666 
L 2053 4666 
Q 2838 4666 3239 4311 
Q 3641 3956 3641 3272 
Q 3641 2581 3239 2228 
Q 2838 1875 2053 1875 
L 1259 1875 
L 1259 0 
L 628 0 
L 628 4666 
z
" transform="scale(0.015625)"/>
       <path id="DejaVuSans-47" d="M 3809 666 
L 3809 1919 
L 2778 1919 
L 2778 2438 
L 4434 2438 
L 4434 434 
Q 4069 175 3628 42 
Q 3188 -91 2688 -91 
Q 1594 -91 976 548 
Q 359 1188 359 2328 
Q 359 3472 976 4111 
Q 1594 4750 2688 4750 
Q 3144 4750 3555 4637 
Q 3966 4525 4313 4306 
L 4313 3634 
Q 3963 3931 3569 4081 
Q 3175 4231 2741 4231 
Q 1884 4231 1454 3753 
Q 1025 3275 1025 2328 
Q 1025 1384 1454 906 
Q 1884 428 2741 428 
Q 3075 428 3337 486 
Q 3600 544 3809 666 
z
" transform="scale(0.015625)"/>
      </defs>
      <use xlink:href="#DejaVuSans-43"/>
      <use xlink:href="#DejaVuSans-44" x="69.824219"/>
      <use xlink:href="#DejaVuSans-44" x="146.826172"/>
      <use xlink:href="#DejaVuSans-50" x="223.828125"/>
      <use xlink:href="#DejaVuSans-47" x="284.130859"/>
     </g>
    </g>
    <g id="line2d_69">
     <path d="M 1100.829744 20.788313 
L 1138.829744 20.788313 
L 1176.829744 20.788313 
" style="fill: none; stroke: #ff7f0e; stroke-width: 10; stroke-linecap: square"/>
    </g>
    <g id="text_34">
     <!-- IQF -->
     <g transform="translate(1207.229744 34.088313) scale(0.38 -0.38)">
      <defs>
       <path id="DejaVuSans-49" d="M 628 4666 
L 1259 4666 
L 1259 0 
L 628 0 
L 628 4666 
z
" transform="scale(0.015625)"/>
      </defs>
      <use xlink:href="#DejaVuSans-49"/>
      <use xlink:href="#DejaVuSans-51" x="29.492188"/>
      <use xlink:href="#DejaVuSans-46" x="108.203125"/>
     </g>
    </g>
    <g id="line2d_70">
     <path d="M 1100.829744 76.565188 
L 1138.829744 76.565188 
L 1176.829744 76.565188 
" style="fill: none; stroke: #e377c2; stroke-width: 10; stroke-linecap: square"/>
    </g>
    <g id="text_35">
     <!-- IDDPG -->
     <g transform="translate(1207.229744 89.865188) scale(0.38 -0.38)">
      <use xlink:href="#DejaVuSans-49"/>
      <use xlink:href="#DejaVuSans-44" x="29.492188"/>
      <use xlink:href="#DejaVuSans-44" x="106.494141"/>
      <use xlink:href="#DejaVuSans-50" x="183.496094"/>
      <use xlink:href="#DejaVuSans-47" x="243.798828"/>
     </g>
    </g>
    <g id="line2d_71">
     <path d="M 1405.316619 20.788313 
L 1443.316619 20.788313 
L 1481.316619 20.788313 
" style="fill: none; stroke: #8c564b; stroke-width: 10; stroke-linecap: square"/>
    </g>
    <g id="text_36">
     <!-- MADDPG-Ind -->
     <g transform="translate(1511.716619 34.088313) scale(0.38 -0.38)">
      <defs>
       <path id="DejaVuSans-4d" d="M 628 4666 
L 1569 4666 
L 2759 1491 
L 3956 4666 
L 4897 4666 
L 4897 0 
L 4281 0 
L 4281 4097 
L 3078 897 
L 2444 897 
L 1241 4097 
L 1241 0 
L 628 0 
L 628 4666 
z
" transform="scale(0.015625)"/>
       <path id="DejaVuSans-2d" d="M 313 2009 
L 1997 2009 
L 1997 1497 
L 313 1497 
L 313 2009 
z
" transform="scale(0.015625)"/>
       <path id="DejaVuSans-6e" d="M 3513 2113 
L 3513 0 
L 2938 0 
L 2938 2094 
Q 2938 2591 2744 2837 
Q 2550 3084 2163 3084 
Q 1697 3084 1428 2787 
Q 1159 2491 1159 1978 
L 1159 0 
L 581 0 
L 581 3500 
L 1159 3500 
L 1159 2956 
Q 1366 3272 1645 3428 
Q 1925 3584 2291 3584 
Q 2894 3584 3203 3211 
Q 3513 2838 3513 2113 
z
" transform="scale(0.015625)"/>
      </defs>
      <use xlink:href="#DejaVuSans-4d"/>
      <use xlink:href="#DejaVuSans-41" x="86.279297"/>
      <use xlink:href="#DejaVuSans-44" x="154.6875"/>
      <use xlink:href="#DejaVuSans-44" x="231.689453"/>
      <use xlink:href="#DejaVuSans-50" x="308.691406"/>
      <use xlink:href="#DejaVuSans-47" x="368.994141"/>
      <use xlink:href="#DejaVuSans-2d" x="446.484375"/>
      <use xlink:href="#DejaVuSans-49" x="482.568359"/>
      <use xlink:href="#DejaVuSans-6e" x="512.060547"/>
      <use xlink:href="#DejaVuSans-64" x="575.439453"/>
     </g>
    </g>
    <g id="line2d_72">
     <path d="M 1405.316619 76.565188 
L 1443.316619 76.565188 
L 1481.316619 76.565188 
" style="fill: none; stroke: #9467bd; stroke-width: 10; stroke-linecap: square"/>
    </g>
    <g id="text_37">
     <!-- MADDPG-Team -->
     <g transform="translate(1511.716619 89.865188) scale(0.38 -0.38)">
      <use xlink:href="#DejaVuSans-4d"/>
      <use xlink:href="#DejaVuSans-41" x="86.279297"/>
      <use xlink:href="#DejaVuSans-44" x="154.6875"/>
      <use xlink:href="#DejaVuSans-44" x="231.689453"/>
      <use xlink:href="#DejaVuSans-50" x="308.691406"/>
      <use xlink:href="#DejaVuSans-47" x="368.994141"/>
      <use xlink:href="#DejaVuSans-2d" x="446.484375"/>
      <use xlink:href="#DejaVuSans-54" x="473.443359"/>
      <use xlink:href="#DejaVuSans-65" x="517.527344"/>
      <use xlink:href="#DejaVuSans-61" x="579.050781"/>
      <use xlink:href="#DejaVuSans-6d" x="640.330078"/>
     </g>
    </g>
    <g id="line2d_73">
     <path d="M 1868.049744 20.788313 
L 1906.049744 20.788313 
L 1944.049744 20.788313 
" style="fill: none; stroke: #d62728; stroke-width: 20; stroke-linecap: square"/>
    </g>
    <g id="text_38">
     <!-- FACMAC -->
     <g transform="translate(1974.449744 34.088313) scale(0.38 -0.38)">
      <use xlink:href="#DejaVuSans-46"/>
      <use xlink:href="#DejaVuSans-41" x="48.394531"/>
      <use xlink:href="#DejaVuSans-43" x="115.052734"/>
      <use xlink:href="#DejaVuSans-4d" x="184.876953"/>
      <use xlink:href="#DejaVuSans-41" x="271.15625"/>
      <use xlink:href="#DejaVuSans-43" x="337.814453"/>
     </g>
    </g>
    <g id="line2d_74">
     <path d="M 1868.049744 76.565188 
L 1906.049744 76.565188 
L 1944.049744 76.565188 
" style="fill: none; stroke: #2ca02c; stroke-width: 20; stroke-linecap: square"/>
    </g>
    <g id="text_39">
     <!-- MQF -->
     <g transform="translate(1974.449744 89.865188) scale(0.38 -0.38)">
      <use xlink:href="#DejaVuSans-4d"/>
      <use xlink:href="#DejaVuSans-51" x="86.279297"/>
      <use xlink:href="#DejaVuSans-46" x="164.990234"/>
     </g>
    </g>
   </g>
  </g>
 </g>
 <defs>
  <clipPath id="p7575db0639">
   <rect x="360" y="129.6" width="1014.545455" height="831.6"/>
  </clipPath>
  <clipPath id="pb40e756d86">
   <rect x="1577.454545" y="129.6" width="1014.545455" height="831.6"/>
  </clipPath>
 </defs>
</svg>
